<?xml version="1.0" encoding="utf-8"?>
<!-- Generator: Adobe Illustrator 23.0.3, SVG Export Plug-In . SVG Version: 6.00 Build 0)  -->
<svg version="1.1" id="Capa_1" xmlns="http://www.w3.org/2000/svg" xmlns:xlink="http://www.w3.org/1999/xlink" x="0px" y="0px"
	 viewBox="0 0 568 568" style="enable-background:new 0 0 568 568;" xml:space="preserve">
<style type="text/css">
	.st0{fill:#F13918;}
</style>
<g>
	<g id="Layer_1_92_">
		<g>
			<path class="st0" d="M526.9,42.4l-1.3-1.3c-54.8-54.8-144.1-54.8-198.9,0L41.1,326.7c-54.8,54.8-54.8,144.1,0,198.9l1.3,1.3
				c54.8,54.8,144.1,54.8,198.9,0l285.6-285.6C581.7,186.5,581.7,97.2,526.9,42.4z M502.7,218.3L218.3,502.7
				c-42.1,42.1-109.7,42.1-151.7,0l-1.3-1.3c-42.1-42.1-42.1-109.6,0-151.7L349.7,65.3c42.1-42.1,109.6-42.1,151.7,0l1.3,1.3
				C544.7,108.7,544.7,176.3,502.7,218.3z"/>
			<path class="st0" d="M458,187.7c-5.1-5.1-14-5.1-19.1,0l-7.6,7.6l-23-22.9l6.4-6.4l-11.5-11.5l-6.4,6.4l-23-22.9l7.6-7.6
				c5.1-5.1,5.1-14,0-19.1L365,94.7c-5.1-5.1-14-5.1-19.1,0L305,135.5c-5.1,5.1-5.1,14,0,19.1l16.6,16.6c5.1,5.1,14,5.1,19.1,0
				l8.9-8.9l22.9,22.9l-6.4,6.4l11.5,11.5l6.4-6.4l23,22.9l-7.6,7.6c-5.1,5.1-5.1,14,0,19.1L416,263c5.1,5.1,14,5.1,19.1,0
				l40.8-40.8c5.1-5.1,5.1-14,0-19.1L458,187.7z"/>
			<path class="st0" d="M246.4,399.4c-5.1-5.1-14-5.1-19.1,0l-8.9,8.9l-22.9-24.2l6.4-6.4l-11.5-11.5l-6.4,6.4l-22.9-23l8.9-8.9
				c5.1-5.1,5.1-14,0-19.1L153.3,305c-5.1-5.1-14-5.1-19.1,0l-40.8,40.8c-5.1,5.1-5.1,14,0,19.1l16.6,16.6c5.1,5.1,14,5.1,19.1,0
				l7.6-7.6l22.9,23l-6.4,6.4l11.5,11.5l6.4-6.4l22.9,23l-7.6,7.6c-5.1,5.1-5.1,14,0,19.1l16.6,16.6c5.1,5.1,14,5.1,19.1,0
				l40.8-40.8c5.1-5.1,5.1-14,0-19.1L246.4,399.4z"/>
		</g>
	</g>
</g>
</svg>
