<svg xmlns="http://www.w3.org/2000/svg" viewBox="0 0 373.04 83.13"><title>TitleExplorers</title><g id="Calque_2" data-name="Calque 2"><g id="WHITE_BG" data-name="WHITE BG"><g id="TITLE"><path d="M13.87,58.63a1.34,1.34,0,0,1-.37.28l-.32.18a.58.58,0,0,1-.33.09c-.18.13-.4.28-.64.47-.5.37-.77.58-.83.64a8.32,8.32,0,0,0-1.12.47l-.73.37a1.14,1.14,0,0,0-.42.09,1.18,1.18,0,0,1-.42.09,1.13,1.13,0,0,1-.41-.09,1.22,1.22,0,0,0-.42-.09l-.18-.19-.19-.18V59.18A10.1,10.1,0,0,1,7.68,58a8.38,8.38,0,0,0,.13-.83c0-.28.05-.45.05-.51a16.65,16.65,0,0,0,.37-1.76c.12-.74.19-1.17.19-1.29V39.21c0-.06-.07-.14-.19-.23a2.75,2.75,0,0,1-.37-.33H7.49a1.08,1.08,0,0,1-.51.19,7.56,7.56,0,0,1-.83.14A10,10,0,0,0,5,39.21H2.5A.8.8,0,0,1,2.22,39,.52.52,0,0,1,2,38.65l-.19-.18A.75.75,0,0,1,1.76,38a1.09,1.09,0,0,1,.09-.47L2,37.17a1.59,1.59,0,0,1,.09-.46,2.76,2.76,0,0,1,.37-.55A6.81,6.81,0,0,1,3,35.42a8,8,0,0,0,.46-.74c0-.12.16-.29.46-.51a4.74,4.74,0,0,0,.65-.51c.12,0,.43-.21.93-.65s.8-.7.92-.83A.62.62,0,0,0,6.84,32,1.13,1.13,0,0,0,7,31.72v-.93a8.2,8.2,0,0,1-.23-1.57c-.09-.92-.2-1.94-.33-3s-.23-2.14-.32-3.1a12.38,12.38,0,0,0-.23-1.71L5,19.51c-.12-.18-.31-.47-.55-.88S4,18,3.88,18A6,6,0,0,0,3,16.88c-.49-.53-.8-.85-.92-1a2.31,2.31,0,0,1-.84-.42C.77,15.21.49,15,.37,15L0,14.52v-2a3.51,3.51,0,0,1,.42-1c.27-.52.44-.84.5-1a5.88,5.88,0,0,1,1-1.15c.52-.53.84-.85,1-1A8.16,8.16,0,0,0,4,8c.53-.24.85-.4,1-.46H6.38A3.6,3.6,0,0,1,7,7.72c.37.16.75.32,1.15.51a11.52,11.52,0,0,0,1.11.46,2.35,2.35,0,0,0,.7.19c.31.18.77.41,1.39.69a4.67,4.67,0,0,0,1.1.42c.31.12.76.27,1.35.46l1.84.6,1.76.6c.53.19.85.31,1,.37a5.12,5.12,0,0,1,.93.19c.49.12,1.06.27,1.71.46s1.29.35,1.94.51a7.34,7.34,0,0,0,1.53.23,8.32,8.32,0,0,1,1.11.23,6.44,6.44,0,0,0,1.38.23,4.8,4.8,0,0,0,.65.23c.31.09.62.17.93.23a7.45,7.45,0,0,0,.87.14l.51,0c.43,0,1.14,0,2.13.14l3.14.32c1.11.12,2.16.23,3.15.32s1.69.18,2.12.24l.19.18.18.19V18l-.37.83a7.19,7.19,0,0,1-.55.74l-.74.93c-.25.31-.49.62-.74.92s-.4.5-.46.56l-1,19.7-.83.46V23l-.37.18a.28.28,0,0,1-.19.09c-.06,0-.09,0-.09.1a4.82,4.82,0,0,0-.18,1.34c-.07.83-.11,1.72-.14,2.68s-.11,2.2-.23,3.74c0,.13-.13.25-.37.37l-.37.19V23a10.65,10.65,0,0,0-1.34-.19c-.65-.06-1.33-.11-2-.14s-1.39-.07-2-.14-1.1-.09-1.34-.09a6.59,6.59,0,0,1-.88-.09c-.4-.06-.82-.11-1.25-.14s-.83-.08-1.2-.14A5.9,5.9,0,0,0,23.4,22c-.19-.06-.65-.17-1.39-.32l-2.36-.51c-.83-.19-1.62-.34-2.36-.47a12.56,12.56,0,0,0-1.38-.18h-.37a6.69,6.69,0,0,1-.1.74c-.06.37,0,.62.1.74s0,.51,0,1.34.06,1.74.09,2.73.11,2.31.24,4a18.74,18.74,0,0,0,1.94.19l2.91.18,2.87.19q1.34.09,1.89.18a6.9,6.9,0,0,1,1,.19,6.54,6.54,0,0,0,1,.18,1.75,1.75,0,0,0,.5.51q.42.33.42.51v1.48a1.15,1.15,0,0,1-.18.51,1.11,1.11,0,0,0-.19.51,10.4,10.4,0,0,1-.55.92,5.62,5.62,0,0,1-.47.56,4,4,0,0,1-.74.92l-.74.74c-.24.13-.63.3-1.15.51a3.85,3.85,0,0,1-1,.32.37.37,0,0,1-.28.1,1.33,1.33,0,0,1-.56.09,2.72,2.72,0,0,1-.64-.09,2.77,2.77,0,0,0-.56-.1,12.07,12.07,0,0,1-1.2-.18,11.3,11.3,0,0,0-1.29-.19h-2.5V51.14A15.72,15.72,0,0,0,17.94,51c.86-.12,1.39-.18,1.57-.18s.73,0,1.44-.09,1.46-.11,2.26-.14,1.56-.08,2.27-.14,1.21-.09,1.52-.09c-.12-.19-.34-.59-.64-1.21a3.55,3.55,0,0,1-.47-1.29,10.84,10.84,0,0,0-.18-1.16,7.86,7.86,0,0,1-.19-1.34v-.64a2.75,2.75,0,0,1,.19-.74,4,4,0,0,0,.18-.65,3.5,3.5,0,0,1,.19-.65,1.08,1.08,0,0,1,.28-.46,2.5,2.5,0,0,1,.55-.6c.31-.28.62-.57.92-.88s.62-.6.93-.88a6.08,6.08,0,0,1,.74-.6L30,39a1.61,1.61,0,0,0,.51-.33h1.94a3.91,3.91,0,0,0,.18.47,1.61,1.61,0,0,0,.37.55,7.13,7.13,0,0,0,.19,1.06c.12.59.18.92.18,1l.79,1.48L35,44.67a4.63,4.63,0,0,0,.64,1c.37.5.62.83.74,1a2.86,2.86,0,0,0,.56.6c.31.28.61.57.92.88s.62.6.93.88a6.29,6.29,0,0,0,.74.6c.12.12.52.45,1.2,1A15.74,15.74,0,0,1,42,51.69a5.59,5.59,0,0,0,.74.56,2.22,2.22,0,0,1,.65.55c.19.07.57.23,1.16.51l1.89.88c.68.31,1.31.62,1.9.92s1,.53,1.15.65a3.47,3.47,0,0,1,.61.46c.27.25.41.41.41.47v1.94a1.59,1.59,0,0,1-.23.6c-.15.28-.26.42-.32.42-.13.18-.33.43-.6.74s-.58.61-.88.92-.6.62-.88.93a3,3,0,0,1-.6.55,1.27,1.27,0,0,0-.56.23,1.25,1.25,0,0,1-.55.23h-2.5a2.42,2.42,0,0,1-.65-.14l-1.06-.32c-.4-.12-.77-.25-1.11-.37a2.07,2.07,0,0,1-.6-.28l-2-.51c-.83-.21-1.68-.41-2.54-.6s-1.62-.35-2.27-.51A9.33,9.33,0,0,0,32,60.29a1.59,1.59,0,0,1-.47-.09,4,4,0,0,0-.64-.18,2,2,0,0,0-.47.13,1.62,1.62,0,0,1-.46.14,8,8,0,0,1-.09.84c-.06.43-.11.87-.14,1.34s-.08.91-.14,1.34a8.15,8.15,0,0,0-.09.83,8.51,8.51,0,0,1-.23,1.29,3.29,3.29,0,0,1-.42,1.21,1.29,1.29,0,0,1-.23.55,1.27,1.27,0,0,0-.23.56c0-.13,0-.36-.05-.7s-.07-.69-.13-1.06-.11-.73-.14-1.06-.05-.61-.05-.79a4,4,0,0,1-.19-.88c-.06-.46-.12-1-.18-1.52s-.11-1.08-.14-1.58,0-.83,0-1L27,59.18a.84.84,0,0,0-.41.14.8.8,0,0,1-.42.14v14.7l-.65,2.5c-.12-.06-.24-.28-.37-.65a3,3,0,0,1-.18-.74,6.63,6.63,0,0,0-.09-.87,12.63,12.63,0,0,1-.14-1.3c0-.46-.08-.92-.14-1.39a8.69,8.69,0,0,1-.09-1c-.07-.43-.13-1.22-.19-2.35s-.11-2.36-.14-3.66-.08-2.51-.14-3.65-.12-2-.18-2.45Z"/><path d="M82.39,61.13a6.63,6.63,0,0,1-.09.87c-.06.4-.11.82-.14,1.25a10.42,10.42,0,0,1-.14,1.2c-.06.37-.09.59-.09.65a4.86,4.86,0,0,1-.23,1.16,2.8,2.8,0,0,1-.41,1l-.56-.46v-5a2,2,0,0,0-.92-.32,3,3,0,0,1-1-.32l-.46-.47V57.24a2.56,2.56,0,0,1-.19-.46,4,4,0,0,1-.18-.65,13.58,13.58,0,0,1-.93-1c-.37-.43-.62-.7-.74-.83a7.31,7.31,0,0,0-1-1.29c-.55-.62-1.15-1.25-1.8-1.9s-1.26-1.25-1.85-1.8l-1.15-1.11a12.23,12.23,0,0,1-1.3-1c-.74-.61-1.33-1.11-1.76-1.48s-.86-.69-1.48-1.15a5.36,5.36,0,0,1-1-.88,1.27,1.27,0,0,1-.56-.23,1.14,1.14,0,0,0-.55-.23h-.47l-.37.46a3.89,3.89,0,0,0-.5.74,4.79,4.79,0,0,1-.51.74,3.4,3.4,0,0,0-.51.74q-.33.56-.69,1.2c-.25.43-.5.86-.74,1.29s-.44.74-.56.93-.48.69-.88,1.34a4.24,4.24,0,0,0-.6,1.16,2.62,2.62,0,0,0-.41.64l-.47.93c-.15.31-.31.6-.46.88a3.73,3.73,0,0,1-.32.51v.92a3.17,3.17,0,0,1-.23.79,2.9,2.9,0,0,0-.24.78,7.79,7.79,0,0,0-.46.65,8,8,0,0,0-.46.74,10.13,10.13,0,0,0-1.16,1.11,6,6,0,0,1-1,.92,2.63,2.63,0,0,1-.46.33c-.25.15-.52.31-.83.46l-.93.46-.64.33H48.83c-.13,0-.3-.16-.51-.47a6.35,6.35,0,0,0-.51-.64V59.74a1.76,1.76,0,0,0,.32-.79,5,5,0,0,1,.23-.78,8.46,8.46,0,0,1,.47-1c.24-.49.5-1,.78-1.48a14.59,14.59,0,0,0,.74-1.48,9.29,9.29,0,0,1,.51-1,7.54,7.54,0,0,1,.6-1.11,7.86,7.86,0,0,1,1-1.38c.25-.43.7-1.16,1.34-2.18s1.34-2.11,2.08-3.28S57.3,43,58,41.94s1.17-1.74,1.48-2.18L58.81,39,45.87,29.78a7.43,7.43,0,0,1-1.3-.28,3.69,3.69,0,0,1-1.2-.46c-.06,0-.14-.06-.23-.19a.4.4,0,0,0-.32-.18,3.22,3.22,0,0,0-.19-.74,4,4,0,0,1-.18-.65V25.71a2.93,2.93,0,0,1,.41-1.07c.28-.52.45-.84.51-1l1.11-1.2a7.35,7.35,0,0,1,1.39-1.29.94.94,0,0,1,.37-.19l.37-.18a.82.82,0,0,1,.37-.1c.12-.06.37-.17.74-.32a3.65,3.65,0,0,1,.64-.23h.47a1.29,1.29,0,0,1,.55.23c.25.15.43.26.56.32L64.46,31.16h1a2.64,2.64,0,0,0,.37-.46,2.35,2.35,0,0,0,.28-.32,1.54,1.54,0,0,1,.18-.23c.19-.19.61-.68,1.25-1.48S68.94,27,69.77,26s1.62-2,2.36-3,1.29-1.76,1.66-2.32c.19-.3.48-.72.88-1.24s.66-.79.79-.79a4.54,4.54,0,0,1,0-.46c0-.25.08-.51.14-.79a6.47,6.47,0,0,0,.14-.78c0-.25,0-.4,0-.47a1.06,1.06,0,0,1,.23-.51,1,1,0,0,0,.23-.5c.12-.13.34-.37.65-.74a1.76,1.76,0,0,0,.46-.74,1.9,1.9,0,0,1,.46-.51,2.38,2.38,0,0,0,.47-.51,2,2,0,0,0,.78-.46c.4-.31.66-.53.79-.65a.26.26,0,0,1,.18-.09.34.34,0,0,0,.28-.1,3.7,3.7,0,0,1,.46-.18h1.57c.19,0,.39.15.61.46a1.57,1.57,0,0,1,.32.65,1.76,1.76,0,0,0,.09.55,2.77,2.77,0,0,1,.19.84,2.89,2.89,0,0,1-.19.92,2.6,2.6,0,0,0-.09.56,6.25,6.25,0,0,1-.51,1.29c-.34.74-.63,1.33-.88,1.76a2.8,2.8,0,0,0-.32.46c-.16.25-.32.51-.51.79a7.49,7.49,0,0,0-.46.78,1.55,1.55,0,0,0-.19.46,1.18,1.18,0,0,0-.09.61v1.1q0,.61.09,1.62a6.34,6.34,0,0,0-.18.93c-.06.43-.11.88-.14,1.34s-.08.92-.14,1.39a8.69,8.69,0,0,0-.09,1q-.09.55-.33,1.89c-.15.9-.31,1.85-.46,2.87s-.31,2-.46,2.87-.26,1.52-.32,1.89a5.74,5.74,0,0,1-.19,1.3c-.06.24-.12.46-.18.64h-.84c0-.18,0-.47,0-.87s.06-.84.09-1.3.06-.91.09-1.34.05-.74.05-.92a10.08,10.08,0,0,1,.19-1.35c.12-.7.23-1.44.32-2.22s.18-1.49.28-2.17.14-1.11.14-1.29a6.33,6.33,0,0,0,.18-1c.06-.47.11-.93.14-1.39s.06-.91.09-1.34.05-.74.05-.93V22.66l-.28.27a.3.3,0,0,0-.09.19.08.08,0,0,1-.09.09c0,.06,0,.25,0,.56s-.08.63-.14,1-.11.64-.14.92,0,.45,0,.51-.34.52-.65,1l-.65,1V25.71a1,1,0,0,0-.37.14,1.79,1.79,0,0,0-.46.32c-.12.18-.43.59-.93,1.2s-1,1.3-1.57,2-1.11,1.46-1.66,2.17-1,1.25-1.2,1.62A3.21,3.21,0,0,0,70,34a3.81,3.81,0,0,1-.51.79l.46.37,5.55,4.62a10,10,0,0,1,.83.7l1.16,1.06c.4.37.78.73,1.15,1.06a2.85,2.85,0,0,0,.84.61l2.49,2.49c.25.25.68.74,1.3,1.48s1,1.24,1.2,1.48.63.87,1.15,1.67l1,1.48a3.13,3.13,0,0,0,.18.74,4.78,4.78,0,0,1,.19.64v2.5a4,4,0,0,1-.19.79,3.66,3.66,0,0,0-.18.78,2.84,2.84,0,0,0-.65.65,1.76,1.76,0,0,0-.46.74c-.07.12-.13.23-.19.32a2.45,2.45,0,0,0-.18.33c-.07.18-.13.34-.19.46l-.83,23.39-.74-.92c-.06-1.91-.12-3.79-.19-5.64-.06-1.6-.1-3.22-.13-4.86s0-3,0-4.11V61.13Z"/><path d="M108.29,50.49a9.08,9.08,0,0,0,0-1.71c0-.83,0-1.34,0-1.53a3.22,3.22,0,0,0-.74.19c-.37.12-.59.25-.65.37a4.44,4.44,0,0,1-.69.23l-1.11.32-1.11.37a2.36,2.36,0,0,1-.79.19,3.06,3.06,0,0,1-1,.46,3.31,3.31,0,0,0-1,.46,5.09,5.09,0,0,0-.32,1.34c-.1.65-.2,1.33-.33,2s-.24,1.39-.37,2-.21,1.1-.28,1.34v.7c0,.34,0,.71,0,1.11s-.06.77-.09,1.11a2.49,2.49,0,0,1-.14.69,3.5,3.5,0,0,1-.19.65c-.12.37-.24.59-.37.65s-.32.46-.6.83a5.57,5.57,0,0,0-.51.74c-.12.12-.46.43-1,.92a4.67,4.67,0,0,1-1.11.83c-.13.07-.39.22-.79.47a2.09,2.09,0,0,1-.88.37l-.65.18c-.49.12-.77.19-.83.19l-.28-.1h-.18a3.3,3.3,0,0,1-.65-.55L91.27,65,92.47,51a1.1,1.1,0,0,1-.69,0c-.34-.06-.69-.14-1.06-.23s-.71-.18-1-.28-.49-.19-.55-.32a3.67,3.67,0,0,1-.74-.69l-.74-.79a.91.91,0,0,0,.09-.41v-.42a2.27,2.27,0,0,1,0-.42,2.17,2.17,0,0,0,0-.41,2.78,2.78,0,0,1,.51-.93,3.67,3.67,0,0,1,.79-.92,2.77,2.77,0,0,1,.46-.6,9.34,9.34,0,0,1,.83-.84c.31-.27.59-.53.83-.78l.56-.56a2.24,2.24,0,0,1-.23-1.06,1.72,1.72,0,0,0-.24-1,6.6,6.6,0,0,0-.13-1.11c-.1-.49-.2-1-.33-1.57s-.23-1.07-.32-1.53a6.57,6.57,0,0,1-.14-.88c-.12-.31-.32-1-.6-2s-.48-1.67-.6-2a3.34,3.34,0,0,0-.23-.93l-.51-1.39c-.19-.49-.37-1-.56-1.43s-.31-.78-.37-1a2.16,2.16,0,0,0-.27-1.2,4.25,4.25,0,0,0-.56-1,4.75,4.75,0,0,0-.51-1.16,14.84,14.84,0,0,1-.69-1.43,2.88,2.88,0,0,1-.46-.78,2.78,2.78,0,0,0-.47-.79c-.12-.12-.35-.39-.69-.79a3.41,3.41,0,0,0-.69-.69,4.06,4.06,0,0,0-.79-1c-.46-.49-.75-.74-.88-.74a2.38,2.38,0,0,1-.41-.27c-.16-.13-.2-.25-.14-.37a3.17,3.17,0,0,1-.47-.74,7,7,0,0,0-.46-.84,3.41,3.41,0,0,0-.14-.74,4.64,4.64,0,0,1-.13-.64,7.55,7.55,0,0,0,.27-.74c.13-.37.22-.62.28-.74l.56-.84a5.78,5.78,0,0,1,.55-.74c.25-.18.66-.47,1.25-.87s.91-.64,1-.7a5,5,0,0,1,1-.6c.55-.28.89-.38,1-.32h1l.51.27a1,1,0,0,0,.51.19,5.17,5.17,0,0,0,.65.79c.37.4.75.83,1.15,1.29s.77.88,1.11,1.25a3.67,3.67,0,0,0,.69.65,5.74,5.74,0,0,0,.93.6c.49.27.83.48,1,.6s.72.34,1.43.65a7.54,7.54,0,0,1,1.43.74,3,3,0,0,1,.93.23,13.74,13.74,0,0,0,1.43.41q.78.2,1.53.42a4.36,4.36,0,0,0,1,.23c.43.06,1.14.22,2.13.46a10.22,10.22,0,0,0,1.94.37l3.24.47,5.55.78c2,.28,3.84.56,5.59.83s2.85.48,3.29.6a5.38,5.38,0,0,1,.92.14c.43.1.88.19,1.34.28s.93.17,1.39.23a8.9,8.9,0,0,0,1,.09l.74.37a2.75,2.75,0,0,0,1.11.37,2.61,2.61,0,0,1,.88.28l.78.37a5.07,5.07,0,0,0,.88.6c.47.28.7.48.7.6a2,2,0,0,1,.5.51,2,2,0,0,0,.51.51l.28.56.19.37a2.41,2.41,0,0,0-.1.92V27a6.92,6.92,0,0,0-.18,1.11q-.09.84-.09.93l-.19.55-.23.46-.23.47c-.13.18-.32.52-.6,1a2.76,2.76,0,0,1-.7.93,7.23,7.23,0,0,1-.69.88c-.4.46-.66.75-.79.88-.31.24-.75.61-1.34,1.11s-1.18,1-1.8,1.57l-1.71,1.52c-.52.47-.85.76-1,.88a2.71,2.71,0,0,0-.65.33l-1.29.74c-.5.27-1,.55-1.44.83s-.81.51-1.06.69l-.83.42-.83.41a7.27,7.27,0,0,1-1.35.74c-.77.37-1.58.76-2.45,1.16L112,45.77a11.4,11.4,0,0,1-1.57.65.43.43,0,0,1-.19.33c-.12.09-.19.17-.19.23-.06.31-.13.77-.23,1.38s-.17,1.27-.23,2-.12,1.32-.18,1.94-.1,1-.1,1.2,0,.52,0,1-.06,1-.09,1.52-.07,1-.1,1.48,0,.79,0,1c-.25,3-.46,5.12-.65,6.29s-.31,1.71-.37,1.62a7.94,7.94,0,0,1-.14-1.76c0-1.08,0-2.31,0-3.7s.08-2.78.14-4.2.12-2.53.19-3.33c0-.13,0-.56,0-1.3S108.29,50.8,108.29,50.49ZM97,24.14c.06.43.2,1.15.41,2.17s.46,2.11.74,3.28.52,2.28.74,3.33.39,1.79.51,2.22c.06.25.17.71.32,1.39s.31,1.43.47,2.26.27,1.62.37,2.36a15.65,15.65,0,0,1,.14,1.57.7.7,0,0,0,.36.1h.47a.39.39,0,0,1,.18,0,.67.67,0,0,0,.28,0h.28a4.18,4.18,0,0,0,.69-.19,3.57,3.57,0,0,1,.79-.18c.3-.12.74-.28,1.29-.46s1.11-.36,1.67-.51,1-.29,1.43-.42a4.8,4.8,0,0,1,.69-.18,12.77,12.77,0,0,0,1.25-.42c.59-.22,1.22-.46,1.9-.74s1.31-.52,1.89-.74,1-.38,1.34-.51a3.38,3.38,0,0,1,1.16-.65,4.59,4.59,0,0,0,1.43-.83c.19-.06.45-.17.79-.32s.68-.32,1-.51l.92-.51a2.73,2.73,0,0,0,.51-.32,1.62,1.62,0,0,0,.51-.28l.92-.6c.34-.22.66-.45,1-.69a3.26,3.26,0,0,0,.65-.65l.42-.23a2.2,2.2,0,0,0,.41-.33,4.94,4.94,0,0,1,.51-.69,1.6,1.6,0,0,0,.42-.69l.18-.47a.08.08,0,0,1-.09-.09v-.46a3.09,3.09,0,0,1-.37-.46,2.48,2.48,0,0,1-.37-.65,3.8,3.8,0,0,0-.51-.19,1.24,1.24,0,0,1-.51-.27,1.87,1.87,0,0,1-.83-.37,2,2,0,0,0-.55-.28c-.37-.06-.93-.19-1.67-.37a9.63,9.63,0,0,1-1.48-.46c-1-.19-1.91-.33-2.59-.42L115,26.49l-1.71-.23h-.65a6.77,6.77,0,0,1-.09.79q-.09.6-.18,1.29a13.15,13.15,0,0,1-.28,1.39c-.12.46-.22.79-.28,1a6,6,0,0,0-.14.88,4.82,4.82,0,0,1-.23,1.06,9.77,9.77,0,0,0-.28,1.39,1.58,1.58,0,0,0-.46.51c-.18.28-.34.42-.46.42l.83-8.88-.83-.09c-.06.18-.15.58-.28,1.2a3.38,3.38,0,0,1-.46,1.29c0,.06-.11.13-.32.19a2.1,2.1,0,0,1-.51.09l.27-2.87c-1.54-.24-3-.49-4.43-.74l-3.84-.74c-1.33-.24-2.42-.46-3.28-.64H97Z"/><path d="M137,63.07a1,1,0,0,0-.46.14,1.17,1.17,0,0,1-.37.14c-.18,0-.71.06-1.57.18s-1.77.28-2.73.46-1.86.36-2.73.51a14.66,14.66,0,0,1-1.57.23h-3c-.06,0-.21-.14-.46-.41l-.46-.51v-.46a5.14,5.14,0,0,1,.18-1,4.78,4.78,0,0,0,.19-1v-10c.12-.49.21-1,.28-1.38s.1-.76.13-1.16a9.15,9.15,0,0,1,.14-1.06,4,4,0,0,1,.09-.65,7.59,7.59,0,0,0,.14-.92,7.37,7.37,0,0,1,.14-.88,3.83,3.83,0,0,0,.09-.51c.06-.31.22-1.07.47-2.27s.51-2.51.78-3.93.54-2.74.79-4,.4-2,.46-2.32a11.6,11.6,0,0,1,.23-1.43,10.38,10.38,0,0,1,.42-1.62,6.91,6.91,0,0,1,.09-.88c.06-.4.11-.78.14-1.15a9.32,9.32,0,0,1,.14-1,4.85,4.85,0,0,0,.09-.55V16.37a7.8,7.8,0,0,1,.46-1.16c.25-.52.4-.84.47-1a15.36,15.36,0,0,0,1.29-1.2,13.59,13.59,0,0,0,1.2-1.3,4.86,4.86,0,0,1,1-.55,4.2,4.2,0,0,0,1-.56h1a7.14,7.14,0,0,0,.65.56c.31.25.46.43.46.55V23.12A6.06,6.06,0,0,1,136,24q-.14.75-.27,1.71c-.1.65-.22,1.3-.37,1.95s-.27,1.15-.33,1.52-.22,1.08-.46,2.31-.51,2.56-.79,4-.54,2.73-.78,3.93-.4,2-.47,2.27a9.31,9.31,0,0,1-.23,1.8c-.15.77-.23,1.19-.23,1.25,0,.43,0,1.22,0,2.36s.06,2.34.09,3.6.06,2.47.09,3.61.05,1.93.05,2.36h.83c.13,0,.48,0,1.07-.14s1.23-.19,1.94-.28,1.35-.18,1.94-.28.94-.14,1.06-.14l.79-.23c.34-.09.69-.17,1.06-.23l1-.14.51,0c.31,0,.82,0,1.53-.1s1.46-.1,2.26-.13,1.56-.08,2.27-.14,1.19-.09,1.43-.09l4.16-3.89c0-.12.2-.23.6-.32a2.65,2.65,0,0,0,.88-.33h.47a1.59,1.59,0,0,1,.46.23,1.37,1.37,0,0,1,.46.42c.06,0,.19.09.37.28a.26.26,0,0,1,.09.18l.28.28a3.7,3.7,0,0,1,.37.46c.19.25.34.47.46.65a6.34,6.34,0,0,0,.6,1.06c.28.41.57.79.88,1.16l1,1.39,4.53,4.53V62.7a1.41,1.41,0,0,1-.18.55,1.34,1.34,0,0,0-.19.56,2.15,2.15,0,0,0-.32.41,2,2,0,0,1-.33.42,3.73,3.73,0,0,0-.46.55l-.51.56a6.17,6.17,0,0,1-.51.55c-.12.07-.37.22-.74.47s-.61.4-.74.46-.4.24-.64.37a.87.87,0,0,1-.37.09l-.46.19a2.17,2.17,0,0,1-.65.09,2.08,2.08,0,0,1-.46-.14,2.26,2.26,0,0,0-.47-.14c-.18-.12-.46-.34-.83-.65l-1.2-1-1.2-1c-.37-.31-.65-.52-.84-.65,0-.12-.13-.23-.41-.32a1.53,1.53,0,0,1-.51-.23,3.17,3.17,0,0,1-.79-.23,2.74,2.74,0,0,0-.78-.23,9.74,9.74,0,0,0-1.39-.42,6.84,6.84,0,0,0-1.11-.23h-5.36a1.94,1.94,0,0,0-.37.55,1.34,1.34,0,0,0-.19.56.69.69,0,0,1-.09.27c-.06.13-.12.28-.19.47s-.12.46-.18.64c-.25.25-.43.37-.56.37s-.21.07-.27,0V63a1.53,1.53,0,0,1-.46-.1,3.13,3.13,0,0,0-.74-.18,1.63,1.63,0,0,1-.65.32c-.31.09-.46.2-.46.33l-.84,10.44-.55.93c0-.37,0-1-.09-1.9s-.11-1.85-.14-2.86-.08-2-.14-2.87-.09-1.53-.09-1.9a3.9,3.9,0,0,1-.33-1.11c-.09-.49-.2-.73-.32-.73a.38.38,0,0,1-.28-.1c-.06,0-.09,0-.09,0s0-.05-.09-.05S137,63.13,137,63.07Z"/><path d="M179,61.4a9.47,9.47,0,0,0-.23,1c-.09.49-.2,1-.32,1.48s-.23,1-.33,1.48a9.47,9.47,0,0,1-.23,1,1.71,1.71,0,0,1-.18.46,1.45,1.45,0,0,0-.19.46H177a3.6,3.6,0,0,0-.23-.65,2.41,2.41,0,0,1-.24-.74,6.14,6.14,0,0,1-.18-1c-.06-.5-.11-1-.14-1.57s-.08-1.07-.14-1.53a3.66,3.66,0,0,0-.18-.88,13.48,13.48,0,0,0-1.48-.55,12.16,12.16,0,0,1-1.48-.56,1.72,1.72,0,0,1-.47-.18,1.09,1.09,0,0,1-.46-.37,3.87,3.87,0,0,1-.41-.24,5.19,5.19,0,0,1-.51-.32c-.25-.12-.46-.21-.65-.28a5.82,5.82,0,0,0-.79-.83q-.6-.55-1.2-1.2l-1.15-1.25a7.51,7.51,0,0,1-.74-.88c-.13,0-.31-.2-.56-.6s-.43-.69-.55-.88a2.34,2.34,0,0,1-.42-.6,7.91,7.91,0,0,1-.42-.92c-.12-.34-.24-.65-.37-.93a1.89,1.89,0,0,1-.18-.51,3.31,3.31,0,0,1-.55-1.34c-.25-.83-.44-1.4-.56-1.71a8.41,8.41,0,0,1-.23-1,2,2,0,0,0-.32-.92,19.65,19.65,0,0,0-.19-2.08Q162,41.33,162,41V37.36c0-.12,0-.4,0-.83s.08-.88.14-1.34.11-.93.14-1.39,0-.79,0-1a5.09,5.09,0,0,0,.32-1.34,5.82,5.82,0,0,1,.23-1.16l.32-1c.16-.46.31-.92.47-1.39s.3-.91.46-1.34l.32-.92A9.37,9.37,0,0,1,165,24.6c.28-.56.59-1.16.93-1.81s.63-1.24.87-1.8a8.9,8.9,0,0,1,.56-1.11,7.79,7.79,0,0,0,.46-.65l.79-1.15.78-1.11c.25-.34.4-.51.47-.51a2.14,2.14,0,0,0,.37-.65,4.45,4.45,0,0,1,.18-.46v-3l.46-.83c.19-.19.45-.47.79-.84s.69-.74,1.06-1.11.73-.7,1.07-1l.69-.65q.27-.18,1-.6a2.68,2.68,0,0,1,1-.42h3a3,3,0,0,1,1.07.42,5.82,5.82,0,0,1,1,.6l.92.88c.5.46,1,1,1.62,1.57s1.14,1.16,1.67,1.71a11.53,11.53,0,0,0,1.24,1.2,10.11,10.11,0,0,0,.65,1,10.07,10.07,0,0,1,.74,1.16,6.65,6.65,0,0,1,.56.74,5.11,5.11,0,0,0,.55.74l.83,1.39a4,4,0,0,1,.56,1.11,7.08,7.08,0,0,0,.51,1l.83,1.53c.28.52.52,1,.74,1.48s.35.79.41,1a4.29,4.29,0,0,1,.56,1.2,8.68,8.68,0,0,0,.55,1.3c.07.24.22.74.47,1.48s.4,1.26.46,1.57a2.13,2.13,0,0,1,.32,1,6.91,6.91,0,0,1,.14,1q.18.65.42,1.8c.15.78.23,1.19.23,1.25V41.8a8.32,8.32,0,0,1-.23,1.11,13.34,13.34,0,0,1-.42,1.39,6.61,6.61,0,0,1-.14,1.15,2.08,2.08,0,0,1-.32,1,3.5,3.5,0,0,1-.19.65,3.13,3.13,0,0,0-.18.74,8.38,8.38,0,0,0-.51.92c-.22.44-.43.85-.65,1.25l-.6,1.16a3.4,3.4,0,0,1-.37.65,4,4,0,0,1-.65,1.15,7.87,7.87,0,0,1-.74,1,7.16,7.16,0,0,0-.78.7l-1.06,1.06-1.07,1.06a3.84,3.84,0,0,1-.69.6c0,.07-.13.19-.37.37l-.83.61q-.47.31-.93.6a4.17,4.17,0,0,1-.74.37,1.41,1.41,0,0,1-.37.23l-.65.32a6.92,6.92,0,0,1-.69.32,1.32,1.32,0,0,1-.41.14c-.25,0-.38.22-.38.65s-.12,1.56-.18,3-.11,3-.14,4.62-.08,3.19-.14,4.67-.09,2.53-.09,3.14a6,6,0,0,1-.09.93c-.07.37-.13.74-.19,1.11s-.12.89-.18,1.39h-.65l-.83-18.41Zm-9.15-23.21a6.39,6.39,0,0,0,.23,1.34c.15.65.26,1.13.32,1.44a14.2,14.2,0,0,1,.56,1.48,13.48,13.48,0,0,0,.55,1.48,16,16,0,0,1,.74,1.43c.37.77.59,1.25.65,1.43a5.84,5.84,0,0,0,.78,1.07,5.69,5.69,0,0,1,.79,1.06l2,2a2.93,2.93,0,0,1,.56.28,2.15,2.15,0,0,0,.41.32l.42.24a2.35,2.35,0,0,0,.56.37,1.41,1.41,0,0,0,.55.18,1.66,1.66,0,0,0,.74.32,3.94,3.94,0,0,0,.65.14h5l.79-.74a5,5,0,0,1,.78-.64c.06-.13.22-.43.47-.93a5.23,5.23,0,0,0,.46-1.2,1.66,1.66,0,0,0,.32-.74,4.21,4.21,0,0,0,.14-.74,1.88,1.88,0,0,0,.19-.69c.06-.4.1-.88.13-1.44s.08-1.09.14-1.62.13-.93.19-1.24v-.47a9.74,9.74,0,0,1-.19-1.06c-.06-.46-.11-.94-.14-1.43s-.07-.93-.13-1.3a3.69,3.69,0,0,0-.19-.74,5.78,5.78,0,0,0-.23-1,4.8,4.8,0,0,1-.23-1.15c-.06-.19-.22-.67-.46-1.44L187,32.83c-.12-.25-.31-.7-.55-1.34a4.28,4.28,0,0,0-.56-1.16c-.06-.18-.2-.52-.41-1s-.46-1-.74-1.48-.56-1-.83-1.48a7.08,7.08,0,0,1-.51-1c-.13-.25-.37-.68-.74-1.3a7.88,7.88,0,0,1-.65-1.2c-.12-.12-.39-.45-.79-1a7.66,7.66,0,0,1-.78-1.16c-.06,0-.22-.13-.46-.41s-.41-.42-.47-.42l-.46.83c-.12.25-.26.58-.42,1a4.34,4.34,0,0,0-.23.69c0,.18,0,.66-.09,1.43s-.11,1.61-.14,2.5-.08,1.74-.14,2.54-.09,1.3-.09,1.48a13.83,13.83,0,0,1-.18,1.44,12,12,0,0,0-.19,1.43,4.63,4.63,0,0,1-.37-1.43,13.83,13.83,0,0,1-.18-1.44c0-.43,0-1.25-.1-2.45s-.1-2.46-.13-3.79-.08-2.57-.14-3.75-.1-2-.1-2.49h-1.11c-.06,0-.27.2-.64.6a7.51,7.51,0,0,0-.74.88,6.93,6.93,0,0,0-.74,1.11,12.27,12.27,0,0,1-.93,1.38,1.11,1.11,0,0,1-.18.51,1.11,1.11,0,0,0-.19.51l-.32,1c-.16.46-.31.93-.46,1.39s-.31.91-.47,1.34a8.88,8.88,0,0,1-.32.83c-.06.25-.17.68-.32,1.3a5.92,5.92,0,0,0-.23,1.2v8.32Z"/><path d="M208.9,63.25l-1.11.14a13.24,13.24,0,0,1-1.39.14,4.38,4.38,0,0,0-.46-.65,1.84,1.84,0,0,1-.37-.55l.83-5.83a5.3,5.3,0,0,0-1.06-.46c-.53-.19-.85-.31-1-.37a2.86,2.86,0,0,1-.88-.88A3.65,3.65,0,0,1,203,54V52.9c.06-.25.14-.53.23-.84a3.4,3.4,0,0,0,.14-.55,2.8,2.8,0,0,1,.09-.65,2.4,2.4,0,0,1,.37-.92c.06-.06.28-.36.65-.88a3.53,3.53,0,0,1,.74-.88c.12-.19.28-.4.46-.65s.23-.35.33-.51a2.15,2.15,0,0,1,.32-.41V45.4a2.78,2.78,0,0,1,.19-.83l.18-.55a6.56,6.56,0,0,0-.23-1c-.16-.55-.29-1-.42-1.39.13-.18.08-.74-.14-1.66s-.35-1.6-.41-2c0-.12,0-.37,0-.74s0-.58,0-.64a5.17,5.17,0,0,1-.37-1.07c-.13-.46-.25-.89-.37-1.29a8.2,8.2,0,0,1-.28-1.11,6,6,0,0,1-.09-.6c-.13-.31-.34-.82-.65-1.53s-.62-1.46-.92-2.26-.6-1.54-.88-2.22a9,9,0,0,1-.51-1.48,2.39,2.39,0,0,0-.51-1c-.34-.49-.57-.74-.69-.74a5.78,5.78,0,0,0-.74-.55l-1.21-.79-1.2-.79a2.94,2.94,0,0,0-.64-.37c-.07,0-.25-.24-.56-.74a13.27,13.27,0,0,0-.83-1.2,1.11,1.11,0,0,0-.19-.51,1.11,1.11,0,0,1-.18-.51v-.46a.8.8,0,0,1,.05-.32,1,1,0,0,0,0-.32,2.1,2.1,0,0,1,.14-.47,2.08,2.08,0,0,0,.14-.46,1,1,0,0,0,.18-.28.59.59,0,0,1,.19-.23c.06,0,.09-.11.09-.23s.23-.28.51-.65a1.78,1.78,0,0,0,.42-.74,9.09,9.09,0,0,1,1-.74,10,10,0,0,0,1-.74,2.24,2.24,0,0,1,.83-.37,4.28,4.28,0,0,1,.83-.18l.56-.19.41-.18a1.22,1.22,0,0,1,.42-.09h.46c.19.12.56.34,1.11.64s.86.56.93.74a5.12,5.12,0,0,1,.69.56l1.11,1c.4.37.77.72,1.11,1.06l.69.69c.25.13.6.28,1.07.47a3.18,3.18,0,0,0,1.06.27q1.11.19,4.11.51c2,.22,4.13.46,6.38.74l6.34.79c2,.24,3.33.4,4.07.46a5.57,5.57,0,0,0,1.89.55,13.62,13.62,0,0,0,2.18.28,2.62,2.62,0,0,0,1.39.65,6.14,6.14,0,0,1,1.1.28l.79.37c.4.18.82.38,1.25.6s.86.41,1.29.6.74.31.93.37a1.25,1.25,0,0,1,.55.23,1.27,1.27,0,0,0,.56.23l.74.93c.24.3.43.46.55.46a6.34,6.34,0,0,0,.51.74,1.84,1.84,0,0,1,.42.74c0,.12,0,.4-.05.83s0,.77,0,1a1.44,1.44,0,0,0-.27,1v.65a1.47,1.47,0,0,1-.23.46q-.24.38-.51.84c-.19.31-.39.61-.6.92a5.68,5.68,0,0,1-.51.65,7.14,7.14,0,0,0-.56.65,7,7,0,0,1-.55.64L240,35.14l-1.11,1.11c-.37.31-1.05.85-2,1.62s-2,1.6-3.15,2.5l-3.14,2.54-2,1.66a.39.39,0,0,1,.33.23,1.94,1.94,0,0,0,.32.42,6,6,0,0,1,.65.42,8.52,8.52,0,0,1,.92.74c.31.27.6.52.88.74a1.33,1.33,0,0,0,.6.32,9.34,9.34,0,0,0,1,.79c.49.33,1,.69,1.48,1.06s1,.71,1.43,1a6,6,0,0,1,1,.74,2.57,2.57,0,0,0,.56.55,2.52,2.52,0,0,1,.65.74,5.89,5.89,0,0,1,1,.69l1.2,1c.4.34.75.66,1.06,1a3.5,3.5,0,0,1,.56.65,1.07,1.07,0,0,0,.32.55l.7.79.69.79a1.33,1.33,0,0,1,.32.46,4.82,4.82,0,0,1,.56,1.11,1.6,1.6,0,0,0-.1.46V61.5a2.69,2.69,0,0,0-.64.78,7.55,7.55,0,0,1-.65.88,5.33,5.33,0,0,1-1.11,1,7.47,7.47,0,0,1-1.2.79,3.32,3.32,0,0,1-.93.46c-.49.18-.8.31-.92.37h-.83a2.18,2.18,0,0,1-.42,0,2.12,2.12,0,0,0-.42,0c-.18-.19-.46-.53-.83-1s-.75-1-1.15-1.48-.79-1-1.16-1.48-.65-.83-.83-1c-.13,0-.42-.2-.88-.6L231.37,59c0-.12-.15-.31-.46-.56s-.46-.43-.46-.55A15,15,0,0,1,229.2,57c-.53-.4-1-.79-1.57-1.16l-1.39-1c-.4-.27-.63-.44-.7-.5l-.83-.51-1.43-.93c-.53-.34-1-.63-1.48-.88s-.79-.43-1-.55a1.27,1.27,0,0,0-.46-.28,1.11,1.11,0,0,1-.47-.28l-.55-.27a1.15,1.15,0,0,0-.51.18,2.94,2.94,0,0,0-.51.37,2.46,2.46,0,0,0-1,.56,2.32,2.32,0,0,1-1,.55,2.67,2.67,0,0,0-.56.46,2.84,2.84,0,0,1-.55.47,3.33,3.33,0,0,0-.37,1.06c-.13.52-.25,1.06-.37,1.62s-.23,1.08-.33,1.57a9.47,9.47,0,0,1-.23,1,1.71,1.71,0,0,1-.14.46q-.13.38-.27.78a5.67,5.67,0,0,1-.33.79A1.71,1.71,0,0,0,213,61c-.06.13-.17.37-.33.74l-.46,1.16c-.15.4-.31.78-.46,1.15s-.26.62-.32.74l-.47.47a1.55,1.55,0,0,0-.46.46l.37-2.87a12.2,12.2,0,0,0-.65,1.34,10.7,10.7,0,0,0-.55,1.44,10.16,10.16,0,0,1-.14,1.15c-.09.59-.18,1.19-.28,1.81s-.18,1.21-.27,1.8a8.1,8.1,0,0,0-.14,1.16l-.74-.93Zm3-37.45c.06.37.21,1.06.46,2.08s.49,2.11.74,3.28.49,2.27.74,3.29.43,1.71.56,2.08a5.29,5.29,0,0,1,.23.69,9.91,9.91,0,0,1,.23,1.16c.06.43.1.83.14,1.2s0,.59,0,.65l.28.83.18.55h.84l1.29,0c.62,0,1.28.08,2,.14s1.37.11,2,.14a10.6,10.6,0,0,1,1.39.14l.92-.47c.19-.12.48-.33.88-.64s.83-.62,1.29-.93l1.34-.88c.44-.27.74-.47.93-.6s.82-.68,1.52-1.29,1.47-1.25,2.27-1.9l2.22-1.8c.68-.56,1.17-1,1.48-1.2.12,0,.26-.16.42-.47a2.62,2.62,0,0,1,.41-.64q-.18,0-.51-.42a1.33,1.33,0,0,1-.32-.6,2.36,2.36,0,0,1-1-.6,2.3,2.3,0,0,0-1-.6,1.93,1.93,0,0,0-.61-.23c-.34-.1-.71-.22-1.11-.37s-.83-.31-1.29-.47a3.49,3.49,0,0,1-1.06-.51,12.18,12.18,0,0,1-1.25-.32,5.78,5.78,0,0,0-1-.23l-.84-.18a7.29,7.29,0,0,0-1.2-.19h-1.94c-.25.06-.42.28-.51.65a1.72,1.72,0,0,1-.32.74,3.67,3.67,0,0,1-.23.83,3.17,3.17,0,0,0-.23.83h-.37a15,15,0,0,0-.23-1.71,12.62,12.62,0,0,1-.24-1.8v-.19a.26.26,0,0,0-.09-.18h-.74c-.06.18-.22.66-.46,1.43a6.94,6.94,0,0,0-.37,1.43,2.13,2.13,0,0,1-.28.93,2.42,2.42,0,0,0-.28.74h-.37l-.27-.28c0-.06,0-.32-.1-.78a9,9,0,0,1-.09-1,3.54,3.54,0,0,1-.14-1.47,3.4,3.4,0,0,0-.14-1.48l-5.82-.37Z"/><path d="M257.36,58.63a1.72,1.72,0,0,1-.37.28,2.45,2.45,0,0,0-.33.18.57.57,0,0,1-.32.09l-.65.47c-.49.37-.77.58-.83.64a8.77,8.77,0,0,0-1.11.47l-.74.37a1.18,1.18,0,0,0-.42.09,1,1,0,0,1-.83,0,1.14,1.14,0,0,0-.42-.09l-.18-.19-.19-.18V59.18c.07-.49.13-.87.19-1.15s.11-.56.14-.83,0-.45,0-.51a14.44,14.44,0,0,0,.37-1.76,12.86,12.86,0,0,0,.19-1.29V39.21c0-.06-.06-.14-.19-.23a3.53,3.53,0,0,1-.37-.33H251a1.07,1.07,0,0,1-.5.19,8.17,8.17,0,0,1-.84.14,10,10,0,0,0-1.15.23H246a.91.91,0,0,1-.28-.19.52.52,0,0,1-.18-.37l-.19-.18a.75.75,0,0,1-.09-.46,1.09,1.09,0,0,1,.09-.47l.19-.37a1.59,1.59,0,0,1,.09-.46,4.17,4.17,0,0,1,.37-.55c.06-.13.22-.37.46-.74s.4-.62.47-.74.15-.29.46-.51a4.49,4.49,0,0,0,.64-.51c.13,0,.44-.21.93-.65s.8-.7.92-.83a.66.66,0,0,0,.47-.18,1.13,1.13,0,0,0,.18-.28v-.93a8.2,8.2,0,0,1-.23-1.57c-.09-.92-.2-1.94-.32-3s-.23-2.14-.33-3.1a12.38,12.38,0,0,0-.23-1.71l-.92-1.85c-.13-.18-.31-.47-.56-.88s-.43-.6-.55-.6a6.21,6.21,0,0,0-.93-1.15c-.49-.53-.8-.85-.92-1a2.29,2.29,0,0,1-.83-.42c-.44-.28-.71-.45-.84-.51l-.37-.46v-2a3.51,3.51,0,0,1,.42-1c.28-.52.45-.84.51-1a5.72,5.72,0,0,1,1-1.15l1-1A8.15,8.15,0,0,0,247.51,8l1-.46h1.38a3.6,3.6,0,0,1,.65.23c.37.16.76.32,1.16.51a11.52,11.52,0,0,0,1.11.46,2.39,2.39,0,0,0,.69.19c.31.18.77.41,1.39.69A4.51,4.51,0,0,0,256,10c.31.12.75.27,1.34.46l1.85.6,1.76.6c.52.19.84.31,1,.37a5.08,5.08,0,0,1,.92.19c.49.12,1.06.27,1.71.46l1.94.51a7.34,7.34,0,0,0,1.53.23,8.32,8.32,0,0,1,1.11.23,6.51,6.51,0,0,0,1.39.23,4.1,4.1,0,0,0,.64.23c.31.09.62.17.93.23a7.61,7.61,0,0,0,.88.14l.51,0c.43,0,1.14,0,2.12.14s2,.2,3.15.32,2.15.23,3.14.32,1.7.18,2.13.24l.18.18.19.19V18l-.37.83c-.13.19-.31.44-.56.74l-.74.93c-.24.31-.49.62-.74.92s-.4.5-.46.56l-1,19.7-.83.46V23l-.37.18a.26.26,0,0,1-.18.09.09.09,0,0,0-.1.1,4.82,4.82,0,0,0-.18,1.34c-.06.83-.11,1.72-.14,2.68s-.11,2.2-.23,3.74c0,.13-.12.25-.37.37l-.37.19V23a10.36,10.36,0,0,0-1.34-.19c-.65-.06-1.33-.11-2-.14s-1.38-.07-2-.14-1.1-.09-1.34-.09a6.59,6.59,0,0,1-.88-.09c-.4-.06-.82-.11-1.25-.14s-.83-.08-1.2-.14a5.9,5.9,0,0,0-.74-.09c-.18-.06-.65-.17-1.39-.32l-2.36-.51c-.83-.19-1.61-.34-2.35-.47a12.62,12.62,0,0,0-1.39-.18H259a5.9,5.9,0,0,1-.09.74c-.06.37,0,.62.09.74s0,.51.05,1.34.06,1.74.09,2.73.11,2.31.23,4a19.06,19.06,0,0,0,1.94.19l2.91.18,2.87.19c.89.06,1.53.12,1.9.18a7.5,7.5,0,0,1,1,.19,6.28,6.28,0,0,0,1,.18,1.69,1.69,0,0,0,.51.51c.27.22.41.39.41.51v1.48a1.15,1.15,0,0,1-.18.51,1.11,1.11,0,0,0-.19.51,10.4,10.4,0,0,1-.55.92c-.19.25-.34.43-.46.56a4.31,4.31,0,0,1-.74.92l-.74.74c-.25.13-.64.3-1.16.51a3.73,3.73,0,0,1-1,.32.34.34,0,0,1-.28.1,1.3,1.3,0,0,1-.55.09,2.8,2.8,0,0,1-.65-.09,2.82,2.82,0,0,0-.55-.1,11.65,11.65,0,0,1-1.21-.18,11.3,11.3,0,0,0-1.29-.19h-2.5V51.14a15.39,15.39,0,0,0,1.57-.19c.87-.12,1.39-.18,1.58-.18s.72,0,1.43-.09,1.46-.11,2.27-.14,1.55-.08,2.26-.14,1.22-.09,1.53-.09a13.11,13.11,0,0,1-.65-1.21,3.48,3.48,0,0,1-.46-1.29c0-.12-.07-.51-.19-1.16a8.65,8.65,0,0,1-.18-1.34v-.64a3,3,0,0,1,.18-.74,4.7,4.7,0,0,0,.19-.65,4,4,0,0,1,.18-.65,1.08,1.08,0,0,1,.28-.46,2.5,2.5,0,0,1,.55-.6c.31-.28.62-.57.93-.88s.61-.6.92-.88a7,7,0,0,1,.74-.6l.51-.23a1.41,1.41,0,0,0,.51-.33h1.94a3.79,3.79,0,0,0,.19.47,1.37,1.37,0,0,0,.37.55,8,8,0,0,0,.18,1.06c.12.59.19.92.19,1,.12.24.38.74.78,1.48s.67,1.23.79,1.48a4.82,4.82,0,0,0,.65,1c.37.5.61.83.74,1a2.71,2.71,0,0,0,.55.6c.31.28.62.57.93.88s.61.6.92.88a8.53,8.53,0,0,0,.74.6c.12.12.52.45,1.2,1s1.11.88,1.3,1.06a5,5,0,0,0,.74.56,2.13,2.13,0,0,1,.64.55c.19.07.57.23,1.16.51l1.9.88c.67.31,1.3.62,1.89.92s1,.53,1.16.65a4,4,0,0,1,.6.46c.28.25.41.41.41.47v1.94a1.43,1.43,0,0,1-.23.6c-.15.28-.26.42-.32.42a7,7,0,0,1-.6.74c-.28.31-.57.61-.88.92s-.6.62-.88.93a2.75,2.75,0,0,1-.6.55,1.25,1.25,0,0,0-.55.23,1.32,1.32,0,0,1-.56.23h-2.5a2.3,2.3,0,0,1-.64-.14l-1.07-.32c-.4-.12-.77-.25-1.11-.37a2.07,2.07,0,0,1-.6-.28l-2-.51c-.83-.21-1.68-.41-2.54-.6s-1.62-.35-2.26-.51a9.31,9.31,0,0,0-1.16-.23,1.54,1.54,0,0,1-.46-.09,4,4,0,0,0-.65-.18,1.84,1.84,0,0,0-.46.13,1.71,1.71,0,0,1-.46.14c0,.13,0,.41-.1.84s-.1.87-.14,1.34-.07.91-.13,1.34a6.62,6.62,0,0,0-.1.83,7.34,7.34,0,0,1-.23,1.29,3.35,3.35,0,0,1-.41,1.21,1.22,1.22,0,0,1-.24.55,1.27,1.27,0,0,0-.23.56c0-.13,0-.36,0-.7s-.08-.69-.14-1.06-.11-.73-.14-1.06-.05-.61-.05-.79a3.66,3.66,0,0,1-.18-.88c-.06-.46-.13-1-.19-1.52s-.1-1.08-.13-1.58-.05-.83-.05-1l-.46-.47a.84.84,0,0,0-.42.14.75.75,0,0,1-.42.14v14.7l-.64,2.5c-.13-.06-.25-.28-.37-.65a2.75,2.75,0,0,1-.19-.74,6.63,6.63,0,0,0-.09-.87c-.06-.41-.11-.84-.14-1.3s-.08-.92-.14-1.39a8.69,8.69,0,0,1-.09-1c-.06-.43-.12-1.22-.19-2.35s-.1-2.36-.13-3.66-.08-2.51-.14-3.65-.13-2-.19-2.45Z"/><path d="M301.09,63.25l-1.1.14a13.5,13.5,0,0,1-1.39.14,5.36,5.36,0,0,0-.46-.65,1.84,1.84,0,0,1-.37-.55l.83-5.83a5.46,5.46,0,0,0-1.07-.46c-.52-.19-.84-.31-1-.37a2.85,2.85,0,0,1-.87-.88,3.65,3.65,0,0,1-.51-.78V52.9c.06-.25.14-.53.23-.84a3.4,3.4,0,0,0,.14-.55,2.8,2.8,0,0,1,.09-.65,2.11,2.11,0,0,1,.37-.92c.06-.06.28-.36.65-.88a3.32,3.32,0,0,1,.74-.88c.12-.19.27-.4.46-.65s.23-.35.32-.51a1.86,1.86,0,0,1,.33-.41V45.4a3,3,0,0,1,.18-.83l.19-.55a5.93,5.93,0,0,0-.24-1c-.15-.55-.29-1-.41-1.39.12-.18.07-.74-.14-1.66s-.36-1.6-.42-2c0-.12,0-.37.05-.74s0-.58-.05-.64a6.72,6.72,0,0,1-.37-1.07c-.12-.46-.24-.89-.37-1.29a9.85,9.85,0,0,1-.27-1.11,4.69,4.69,0,0,1-.1-.6c-.12-.31-.34-.82-.64-1.53s-.62-1.46-.93-2.26-.6-1.54-.88-2.22A11.46,11.46,0,0,1,293.6,25a2.46,2.46,0,0,0-.5-1c-.34-.49-.57-.74-.7-.74a5.11,5.11,0,0,0-.74-.55l-1.2-.79-1.2-.79a2.88,2.88,0,0,0-.65-.37c-.06,0-.24-.24-.55-.74a13.12,13.12,0,0,0-.84-1.2,1.19,1.19,0,0,0-.18-.51,1.15,1.15,0,0,1-.19-.51v-.46a1,1,0,0,1,0-.32,1,1,0,0,0,.05-.32,1.87,1.87,0,0,1,.13-.47,1.62,1.62,0,0,0,.14-.46.8.8,0,0,0,.19-.28.51.51,0,0,1,.18-.23c.07,0,.1-.11.1-.23s.23-.28.5-.65a1.78,1.78,0,0,0,.42-.74,10.38,10.38,0,0,1,1-.74,8.81,8.81,0,0,0,1-.74,2.33,2.33,0,0,1,.83-.37,4.32,4.32,0,0,1,.84-.18l.55-.19.42-.18a1.13,1.13,0,0,1,.41-.09h.47c.18.12.55.34,1.11.64s.86.56.92.74a4.54,4.54,0,0,1,.69.56l1.11,1c.4.37.77.72,1.11,1.06l.7.69c.24.13.6.28,1.06.47a3.24,3.24,0,0,0,1.06.27c.74.13,2.12.3,4.12.51s4.13.46,6.38.74l6.34.79c2,.24,3.32.4,4.06.46a5.66,5.66,0,0,0,1.9.55,13.54,13.54,0,0,0,2.17.28,2.62,2.62,0,0,0,1.39.65,6.1,6.1,0,0,1,1.11.28l.79.37c.4.18.81.38,1.24.6s.87.41,1.3.6.74.31.92.37a1.27,1.27,0,0,1,.56.23,1.25,1.25,0,0,0,.55.23l.74.93c.25.3.43.46.56.46a6.34,6.34,0,0,0,.51.74,1.9,1.9,0,0,1,.41.74c0,.12,0,.4,0,.83s0,.77,0,1a1.43,1.43,0,0,0-.28,1v.65a1.47,1.47,0,0,1-.23.46l-.51.84c-.18.31-.38.61-.6.92a4.06,4.06,0,0,1-.51.65,7.47,7.47,0,0,0-.55.65,6.67,6.67,0,0,1-.56.64l-1.38,1.39-1.11,1.11q-.56.47-2,1.62c-1,.77-2,1.6-3.14,2.5l-3.15,2.54-2,1.66a.39.39,0,0,1,.32.23,2,2,0,0,0,.33.42,6.24,6.24,0,0,1,.64.42,8.6,8.6,0,0,1,.93.74c.31.27.6.52.88.74a1.28,1.28,0,0,0,.6.32,7.67,7.67,0,0,0,1,.79c.49.33,1,.69,1.48,1.06s1,.71,1.43,1a6.46,6.46,0,0,1,1,.74,2.24,2.24,0,0,0,.55.55,2.38,2.38,0,0,1,.65.74,5.5,5.5,0,0,1,1,.69l1.2,1c.41.34.76.66,1.07,1a3.3,3.3,0,0,1,.55.65,1,1,0,0,0,.33.55l.69.79.69.79c.22.24.33.4.33.46a4.77,4.77,0,0,1,.55,1.11,1.54,1.54,0,0,0-.09.46V61.5a2.83,2.83,0,0,0-.65.78,7.93,7.93,0,0,1-.64.88,6,6,0,0,1-1.11,1,7,7,0,0,1-1.21.79,3.21,3.21,0,0,1-.92.46c-.5.18-.8.31-.93.37h-.83a2.17,2.17,0,0,1-.41,0,2.27,2.27,0,0,0-.42,0,11.15,11.15,0,0,1-.83-1c-.37-.49-.76-1-1.16-1.48s-.78-1-1.15-1.48a10.82,10.82,0,0,0-.84-1c-.12,0-.41-.2-.88-.6L323.57,59c0-.12-.16-.31-.47-.56s-.46-.43-.46-.55c-.31-.19-.72-.48-1.25-.88s-1.05-.79-1.57-1.16l-1.39-1a7.21,7.21,0,0,1-.69-.5l-.83-.51-1.44-.93c-.52-.34-1-.63-1.47-.88s-.79-.43-1-.55a1.12,1.12,0,0,0-.46-.28,1.08,1.08,0,0,1-.46-.28l-.56-.27a1.12,1.12,0,0,0-.5.18,2.6,2.6,0,0,0-.51.37,2.34,2.34,0,0,0-1,.56,2.28,2.28,0,0,1-1,.55,2.69,2.69,0,0,0-.55.46,2.81,2.81,0,0,1-.56.47,3.92,3.92,0,0,0-.37,1.06L306.64,56c-.12.55-.23,1.08-.32,1.57a9.47,9.47,0,0,1-.23,1A2.25,2.25,0,0,1,306,59c-.09.25-.19.51-.28.78a5.66,5.66,0,0,1-.32.79,1.55,1.55,0,0,0-.19.46c-.06.13-.17.37-.32.74s-.31.76-.46,1.16l-.46,1.15c-.16.37-.27.62-.33.74l-.46.47a1.44,1.44,0,0,0-.46.46l.37-2.87a10.53,10.53,0,0,0-.65,1.34,13.11,13.11,0,0,0-.56,1.44,9.34,9.34,0,0,1-.13,1.15c-.1.59-.19,1.19-.28,1.81s-.19,1.21-.28,1.8a10,10,0,0,0-.14,1.16l-.74-.93Zm3-37.45c.06.37.22,1.06.47,2.08s.49,2.11.74,3.28.49,2.27.74,3.29.43,1.71.55,2.08a4.08,4.08,0,0,1,.23.69,8.21,8.21,0,0,1,.23,1.16c.06.43.11.83.14,1.2s.05.59.05.65l.28.83.18.55h.83l1.3,0c.61,0,1.28.08,2,.14s1.37.11,2,.14a10.4,10.4,0,0,1,1.39.14l.93-.47c.18-.12.47-.33.87-.64s.84-.62,1.3-.93l1.34-.88c.43-.27.74-.47.92-.6s.82-.68,1.53-1.29,1.46-1.25,2.27-1.9l2.22-1.8c.67-.56,1.17-1,1.47-1.2.13,0,.27-.16.42-.47a2.34,2.34,0,0,1,.42-.64q-.19,0-.51-.42a1.28,1.28,0,0,1-.33-.6,2.3,2.3,0,0,1-1-.6,2.31,2.31,0,0,0-1-.6,1.73,1.73,0,0,0-.6-.23c-.34-.1-.71-.22-1.11-.37s-.83-.31-1.3-.47a3.61,3.61,0,0,1-1.06-.51,12.87,12.87,0,0,1-1.25-.32,5.56,5.56,0,0,0-1-.23l-.83-.18a7.62,7.62,0,0,0-1.2-.19h-1.94c-.25.06-.42.28-.51.65a1.71,1.71,0,0,1-.33.74,3.17,3.17,0,0,1-.23.83,3.67,3.67,0,0,0-.23.83H314a15,15,0,0,0-.23-1.71,13.72,13.72,0,0,1-.23-1.8v-.19a.26.26,0,0,0-.09-.18h-.74c-.07.18-.22.66-.47,1.43a7.74,7.74,0,0,0-.37,1.43,2.23,2.23,0,0,1-.27.93,2.17,2.17,0,0,0-.28.74H311l-.28-.28q0-.09-.09-.78a9,9,0,0,1-.09-1,3.37,3.37,0,0,1-.14-1.47,3.57,3.57,0,0,0-.14-1.48l-5.83-.37Z"/><path d="M357.13,61.4h-.74v7.12h-.83L354.64,62a14,14,0,0,1-1.85-.19A8.2,8.2,0,0,1,351,61.4a3.41,3.41,0,0,1-.74-.14,1.7,1.7,0,0,1-.65-.23l-1.15-.55a3.84,3.84,0,0,1-1-.56l-.65-.64c-.19-.19-.36-.34-.51-.47l-.32-.27a2,2,0,0,0-.42-.79A8.64,8.64,0,0,0,345,57a6.21,6.21,0,0,1-.51-1.06,3.73,3.73,0,0,1-.32-1,2.38,2.38,0,0,1-.42-.92,5.07,5.07,0,0,1-.23-.93V47.44a3.48,3.48,0,0,1,.46-1.29,13.11,13.11,0,0,1,.65-1.21,10.19,10.19,0,0,1-1-.09c-.49-.06-1-.11-1.48-.14s-1-.08-1.48-.14a10.06,10.06,0,0,0-1-.09,1.45,1.45,0,0,1-.56-.18,2.25,2.25,0,0,1-.55-.37q-.19,0-.51-.42t-.51-.42a3.52,3.52,0,0,0-.19-.64,3.91,3.91,0,0,0-.18-.47V39.49q0-.09.18-.93a5.89,5.89,0,0,0,.19-1.11c.12-.24.29-.66.51-1.25s.43-1.2.64-1.85l.61-1.8c.18-.55.3-.92.37-1.11a7.35,7.35,0,0,1,.92-1.8,11.46,11.46,0,0,0,1.11-2.18c.12-.24.34-.73.65-1.47s.64-1.55,1-2.41.71-1.68,1-2.45.52-1.31.65-1.62a10.2,10.2,0,0,1,1.25-2.17q.78-1.07,1.62-2.13A27.33,27.33,0,0,0,349.46,13a9.93,9.93,0,0,0,1.11-2.59,4.62,4.62,0,0,0,.37-.56c.18-.31.38-.63.6-1s.43-.68.65-1l.5-.78a3.39,3.39,0,0,1,.33-.7l.51-1c.18-.18.47-.51.88-1a4.29,4.29,0,0,1,.78-.78,5.69,5.69,0,0,1,1-1.16l1-1a2.4,2.4,0,0,0,.65-.46c.37-.31.62-.53.74-.65a3.5,3.5,0,0,0,.65-.19,3.7,3.7,0,0,1,.46-.18h3.42l1.11,1.11a1.89,1.89,0,0,1,.51.65,3.69,3.69,0,0,0,.51.74,6.19,6.19,0,0,0,.32,1.11c.22.61.39,1.08.51,1.38a11.67,11.67,0,0,1,.65,1.44,5.89,5.89,0,0,1,.46,1.43,3.37,3.37,0,0,0,.14.69c.09.34.2.7.32,1.07s.23.72.33,1.06a3.25,3.25,0,0,1,.13.79,5.24,5.24,0,0,0,.24,1,4.8,4.8,0,0,1,.23,1.15,13.37,13.37,0,0,0,.37,1.53c.18.65.37,1.31.55,2s.34,1.29.46,1.85a7,7,0,0,0,.28,1,2.38,2.38,0,0,0,.42,1.16,2.57,2.57,0,0,1,.41,1.34q.19.64.42,1.8c.15.78.23,1.22.23,1.35v3.32a1,1,0,0,1-.23.51A3,3,0,0,1,371,30l-.74,1.11c-.37.56-.58.87-.64.93s-.45.38-1,.78a11.39,11.39,0,0,0-1,.79,3.57,3.57,0,0,0-.79.18,3.16,3.16,0,0,1-.88.19h-.46a1.45,1.45,0,0,1-.46-.19,1.72,1.72,0,0,0-.47-.18,1.17,1.17,0,0,1-.27-.46,3.5,3.5,0,0,1-.19-.65,1.66,1.66,0,0,1-.32-.74c-.09-.37-.2-.59-.33-.65a4.34,4.34,0,0,0-.23-1.15,5.58,5.58,0,0,1-.23-1c0-.18,0-.5,0-1s-.08-1-.14-1.52-.11-1.08-.14-1.57-.05-.8-.05-.93a8.87,8.87,0,0,1-.28-1c-.06-.3-.12-.6-.18-.87a3.27,3.27,0,0,1-.09-.61,11,11,0,0,0-.79-2.22c-.4-.86-.66-1.44-.79-1.75s-.21-.82-.46-1.71-.4-1.5-.46-1.81-.26-.7-.42-1.2-.32-1-.5-1.48a13.06,13.06,0,0,1-.65-1.76h-.56c0,.19,0,.56.05,1.11s.05,1.16.05,1.81,0,1.25,0,1.8.05.93.05,1.11a8.6,8.6,0,0,1-.23,1.43q-.24,1.06-.33,1.35a3.11,3.11,0,0,0-.23-.84,3.67,3.67,0,0,1-.23-.83,5.91,5.91,0,0,1-.18-.88,12.13,12.13,0,0,1-.14-1.29c0-.47-.08-.91-.14-1.34A6,6,0,0,0,356,12L355.19,14v9.16l-.55.83-.74-.83V15.63a4.06,4.06,0,0,0-.51.65l-.7,1c-.24.34-.46.66-.64,1a3.57,3.57,0,0,0-.37.74l-.56,1.15c-.31.65-.65,1.41-1,2.27S349.35,24.11,349,25s-.69,1.54-.88,2a2,2,0,0,1-.46.79,1.91,1.91,0,0,0-.46.78l-.51,1.48c-.22.62-.43,1.24-.65,1.85l-.6,1.71a4.19,4.19,0,0,1-.37.88,4.88,4.88,0,0,0,.23.93,4.31,4.31,0,0,1,.23,1l1.16,0c.58,0,1.2.05,1.85.05h1.85a7.56,7.56,0,0,0,1.34-.09l.55,0c.31,0,.66-.08,1.07-.14s.78-.11,1.15-.14l.74,0,1-.23c.43-.09.86-.17,1.29-.23l1.11-.18a4.85,4.85,0,0,1,.56-.09h7.95a8.28,8.28,0,0,0,1.43.55c.77.25,1.31.43,1.62.56l1,1a5.38,5.38,0,0,1,1,1.15,7.63,7.63,0,0,0,.51,1,2.64,2.64,0,0,1,.42,1v5.45a3.5,3.5,0,0,1-.19.65,3.13,3.13,0,0,0-.18.74c-.06.12-.16.32-.28.6a8.36,8.36,0,0,1-.46.88c-.19.31-.37.62-.56.92a5.55,5.55,0,0,0-.37.74,2.39,2.39,0,0,1-.27.56,2.2,2.2,0,0,0-.33.41c-.09.16-.17.3-.23.42a13.75,13.75,0,0,0-.92,1.06c-.37.47-.62.76-.74.88s-.11.3-.33.51l-.5.51c-.13.12-.34.31-.65.55l-1,.79c-.34.28-.65.53-.93.74s-.45.36-.51.42a4.55,4.55,0,0,1-.78.55,4.64,4.64,0,0,0-.79.56,1.57,1.57,0,0,0-.65.32,10.94,10.94,0,0,1-1.06.65c-.4.21-.77.43-1.11.64a5.41,5.41,0,0,0-.6.42c-.06,0-.18.09-.37.28a.26.26,0,0,0-.09.18v1.39c0,.19,0,.63.09,1.34s.11,1.47.14,2.27.08,1.54.14,2.22.09,1.07.09,1.2V76a4.81,4.81,0,0,1-.09.7c-.06.34-.11.69-.14,1.06s-.08.73-.14,1.06a5.64,5.64,0,0,0-.09.61,3.5,3.5,0,0,1-.33-1.21,4.81,4.81,0,0,0-.32-1.29c-.06-.5-.14-1.37-.23-2.64s-.19-2.62-.28-4.07-.17-2.8-.23-4.06-.09-2.15-.09-2.64Zm-5.73-15V47a4.61,4.61,0,0,0,.09.88c.06.31.13.65.19,1A2.67,2.67,0,0,0,352,50a4.12,4.12,0,0,0,.69,1.07,5.27,5.27,0,0,0,.79.92,9.35,9.35,0,0,0,1.16,1.11,1.59,1.59,0,0,1,.46.23,1.26,1.26,0,0,0,.46.23h5a1.89,1.89,0,0,0,.51-.18c.28-.13.57-.26.88-.42s.62-.32.93-.51a3.14,3.14,0,0,0,.64-.46,2.37,2.37,0,0,0,.56-.46,2.38,2.38,0,0,1,.55-.46,4.21,4.21,0,0,1,.51-1.07,2.31,2.31,0,0,0,.42-1.06v-2.5a3.51,3.51,0,0,0-.42-1c-.28-.52-.45-.85-.51-1a8.61,8.61,0,0,1-.78-.51,2,2,0,0,0-.79-.41q-.09-.2-1.11-.33a13.24,13.24,0,0,0-1.39-.14h-2.49c-.31,0-.74,0-1.3,0l-1.71.09c-.58,0-1.11.08-1.57.14a1.88,1.88,0,0,0-.79.19,1.41,1.41,0,0,0-.55.18,2.56,2.56,0,0,0-.46.19,11,11,0,0,1-.14,1.29A11.7,11.7,0,0,0,351.4,46.42Z"/></g></g></g></svg>