<?xml version="1.0" encoding="utf-8"?>
<!-- Generator: Adobe Illustrator 23.0.3, SVG Export Plug-In . SVG Version: 6.00 Build 0)  -->
<svg version="1.1" id="Layer_1" xmlns="http://www.w3.org/2000/svg" xmlns:xlink="http://www.w3.org/1999/xlink" x="0px" y="0px"
	 viewBox="0 0 512 512" style="enable-background:new 0 0 512 512;" xml:space="preserve">
<style type="text/css">
	.st0{fill:#F13918;}
</style>
<g>
	<g>
		<g>
			<rect x="238" y="251.5" class="st0" width="143.7" height="125.8"/>
			<path class="st0" d="M282.9,89.8h-18v-9h18c5,0,9-4,9-9V9c0-5-4-9-9-9h-53.9c-5,0-9,4-9,9v62.9c0,5,4,9,9,9h18v9h-18
				c-51.5,0-93.8,39.5-98.3,89.8h250.6C376.7,129.4,334.4,89.8,282.9,89.8z"/>
			<path class="st0" d="M220.1,386.2V242.5c0-5,4-9,9-9h152.7v-35.9H130.2v224.6h44.9c5,0,9,4,9,9s-4,9-9,9h-44.9v18h62.9
				c5,0,9,4,9,9c0,5-4,9-9,9h-62.9c0,19.8,16.1,35.9,35.9,35.9h179.6c19.8,0,35.9-16.1,35.9-35.9v-80.8H229.1
				C224.1,395.2,220.1,391.2,220.1,386.2z"/>
		</g>
	</g>
</g>
</svg>
