<?xml version="1.0" encoding="utf-8"?>
<!-- Generator: Adobe Illustrator 23.0.3, SVG Export Plug-In . SVG Version: 6.00 Build 0)  -->
<svg version="1.1" id="Layer_1" xmlns="http://www.w3.org/2000/svg" xmlns:xlink="http://www.w3.org/1999/xlink" x="0px" y="0px"
	 viewBox="0 0 512 512" style="enable-background:new 0 0 512 512;" xml:space="preserve">
<style type="text/css">
	.st0{fill:#F13918;}
</style>
<g>
	<g>
		<path class="st0" d="M0,68.3v375.5h512V68.3H0z M358.4,130.8c9.4,0,17.1,7.6,17.1,17.1s-7.6,17.1-17.1,17.1s-17.1-7.6-17.1-17.1
			S349,130.8,358.4,130.8z M358.4,187.7c9.4,0,17.1,7.6,17.1,17.1s-7.6,17.1-17.1,17.1s-17.1-7.6-17.1-17.1S349,187.7,358.4,187.7z
			 M358.4,244.6c9.4,0,17.1,7.6,17.1,17.1s-7.6,17.1-17.1,17.1s-17.1-7.6-17.1-17.1S349,244.6,358.4,244.6z M273.1,130.8h34.1V165
			h-34.1L273.1,130.8L273.1,130.8z M290.1,187.7c9.4,0,17.1,7.6,17.1,17.1s-7.6,17.1-17.1,17.1s-17.1-7.6-17.1-17.1
			S280.7,187.7,290.1,187.7z M204.8,130.8h34.1V165h-34.1V130.8z M221.9,187.7c9.4,0,17.1,7.6,17.1,17.1s-7.6,17.1-17.1,17.1
			c-9.4,0-17.1-7.6-17.1-17.1S212.4,187.7,221.9,187.7z M204.8,244.6h102.4v34.1H204.8V244.6z M153.6,130.8
			c9.4,0,17.1,7.6,17.1,17.1S163,165,153.6,165c-9.4,0-17.1-7.6-17.1-17.1S144.2,130.8,153.6,130.8z M153.6,187.7
			c9.4,0,17.1,7.6,17.1,17.1s-7.6,17.1-17.1,17.1c-9.4,0-17.1-7.6-17.1-17.1S144.2,187.7,153.6,187.7z M153.6,244.6
			c9.4,0,17.1,7.6,17.1,17.1s-7.6,17.1-17.1,17.1c-9.4,0-17.1-7.6-17.1-17.1S144.2,244.6,153.6,244.6z M68.3,130.8h34.1V165H68.3
			V130.8z M85.3,187.7c9.4,0,17.1,7.6,17.1,17.1s-7.6,17.1-17.1,17.1s-17.1-7.6-17.1-17.1S75.9,187.7,85.3,187.7z M68.3,244.6h34.1
			v34.1H68.3V244.6z M443.7,409.6H68.3v-68.3h45.5v39.8h34.1v-39.8h28.4v39.8h34.1v-39.8h28.4v39.8h34.1v-39.8h28.4v39.8h34.1v-39.8
			h28.4v39.8h34.1v-39.8h45.5L443.7,409.6L443.7,409.6z M443.7,278.8h-34.1v-34.1h34.1V278.8z M426.7,221.9
			c-9.4,0-17.1-7.6-17.1-17.1s7.6-17.1,17.1-17.1s17.1,7.6,17.1,17.1S436.1,221.9,426.7,221.9z M443.7,165h-34.1v-34.1h34.1V165z"/>
	</g>
</g>
</svg>
