<svg xmlns="http://www.w3.org/2000/svg" viewBox="0 0 394.73 152.51"><title>TitleUrban</title><g id="Calque_2" data-name="Calque 2"><g id="WHITE_BG" data-name="WHITE BG"><g id="TITLE"><path d="M27.84,111.54H25.71a32.65,32.65,0,0,1-.35,3.46,13.82,13.82,0,0,1-.71,3.28q0,.89-.09,2a17,17,0,0,1-.27,2c-.11.71-.23,1.42-.35,2.13h-1.6V111.54a1.8,1.8,0,0,0-.53-.35,3.14,3.14,0,0,0-.88-.36,7.88,7.88,0,0,1-1.42-.26c-.71-.18-1.48-.39-2.31-.62s-1.6-.47-2.3-.71-1.19-.42-1.42-.53a11.92,11.92,0,0,1-2.22-.63,6.6,6.6,0,0,1-2.57-1.33,3.1,3.1,0,0,1-1.42-.35,2,2,0,0,1-.71-.36c-.24-.23-.56-.59-1-1.06a19,19,0,0,0-1.42-1.42l-1.51-1.33a3.9,3.9,0,0,1-.89-1,6.9,6.9,0,0,1-.35-.89,5.68,5.68,0,0,0-.36-.62,5.72,5.72,0,0,1-.35-.62L.35,97.71c-.11-.35-.23-.77-.35-1.24V90.79a21.24,21.24,0,0,1,.35-2.21A16.27,16.27,0,0,0,.71,86c.23-.83.56-2.22,1-4.17a29.29,29.29,0,0,1,1-3.81c.12-.36.38-1.16.8-2.4S4.28,73,4.7,71.46s.82-2.95,1.24-4.25a11.89,11.89,0,0,0,.62-2.48,36.07,36.07,0,0,0,1.07-3.82c.47-1.95.82-3.34,1.06-4.16a16.23,16.23,0,0,1,.44-2.49A17.68,17.68,0,0,0,9.58,52V42.38a2.85,2.85,0,0,0-.18-.88L9,40.43,8.69,39a5.15,5.15,0,0,0-2-.71c-1.13-.23-1.75-.47-1.86-.71a1,1,0,0,1-.71-.35.52.52,0,0,1-.18-.35c-.12-.36-.24-.77-.35-1.25a3.28,3.28,0,0,1-.18-1.06V33.07a1.77,1.77,0,0,1,.18-.8l.35-1.06a6.29,6.29,0,0,1,.62-1.95,12.93,12.93,0,0,1,1-2l4.08-4.08a12,12,0,0,1,1.24-.89c.71-.47,1.18-.76,1.42-.88A4.76,4.76,0,0,0,13.65,21a5,5,0,0,1,1.42-.44h1.07a6.71,6.71,0,0,0,1.86,1,7.13,7.13,0,0,1,1.86,1,1,1,0,0,1,.71.36l.36.35c.23.47.59,1.21,1.06,2.22a8.06,8.06,0,0,0,1.06,1.86,8,8,0,0,0,.45,2,8.34,8.34,0,0,1,.44,1.95V46.46a14.91,14.91,0,0,1-.44,2.13,12,12,0,0,0-.45,2.66c-.12.35-.26,1-.44,1.77s-.39,1.63-.62,2.4-.44,1.5-.62,2.21a3.83,3.83,0,0,1-.44,1.24,16.46,16.46,0,0,1-.71,2.93Q19.5,64.2,18.71,67c-.53,1.89-1.07,3.64-1.6,5.23s-.86,2.57-1,2.93c-.12.59-.33,1.48-.62,2.66A14.12,14.12,0,0,0,15.07,80v8.69l1.51,1.5a12.61,12.61,0,0,0,1.69,1.51,9.14,9.14,0,0,0,1.41.89,7.12,7.12,0,0,0,1.16.62,2.55,2.55,0,0,0,1,.26,4.79,4.79,0,0,1,1.42.45,5,5,0,0,0,1.42.44,8.53,8.53,0,0,0,2.22.62,4.19,4.19,0,0,1,1.86.62,11.26,11.26,0,0,1,1.15.18q1,.18,2,.27c.71.06,1.39.15,2,.26a8.88,8.88,0,0,0,1.33.18,21,21,0,0,1,2.22.18c1,.12,2,.2,3.1.26l2.75.18c.77.06,1.27.09,1.51.09s1,.06,2.39.18,2.33.17,2.93.17h1a3.85,3.85,0,0,0,1.15-.17,5.76,5.76,0,0,0,1.42-.18l.71-2.84V80c0-.24,0-.77-.09-1.6s-.15-1.71-.26-2.66-.21-1.86-.27-2.75-.09-1.51-.09-1.86a4.26,4.26,0,0,1-.44-1.42c-.18-.82-.36-1.77-.53-2.84s-.36-2.06-.54-3-.32-1.71-.44-2.31c-.12-.35-.33-1.09-.62-2.21s-.56-2.28-.8-3.46-.5-2.31-.8-3.37-.5-1.77-.62-2.13c-.23-.82-.68-2.33-1.33-4.52s-1.33-4.49-2-6.92-1.39-4.72-2-6.91-1.1-3.75-1.33-4.7V22.52a2.9,2.9,0,0,1,.17-.89,7.91,7.91,0,0,1,.71-1.06A15.72,15.72,0,0,1,44,19.15c.47-.71.77-1.18.89-1.42s.59-.56,1.06-1,.82-.74,1.06-1a3.35,3.35,0,0,0,1.42-.88,5.55,5.55,0,0,0,1.24-1.25,2.67,2.67,0,0,0,1.07-.35A2.59,2.59,0,0,1,51.78,13h2.66c.24,0,.59.29,1.06.88a16.08,16.08,0,0,0,1.07,1.24,14.83,14.83,0,0,0,.89,2.13c.23.59.44,1.22.62,1.86s.32,1.16.44,1.51q.36,1.42,1.68,6t3.11,10.73q1.77,6.12,3.81,12.94t3.81,12.95L74,74q1.32,4.6,1.68,6c.12.35.29.91.53,1.68s.5,1.6.8,2.48.59,1.78.89,2.66a7.28,7.28,0,0,1,.44,1.87c.12.35.36,1,.71,1.86s.74,1.83,1.15,2.84.83,2,1.24,2.92a14,14,0,0,0,1,1.95,5.91,5.91,0,0,0,.89,1.86A11.59,11.59,0,0,0,84.59,102V106a2.25,2.25,0,0,1-.53.89,5,5,0,0,0-.54.62c-.12.18-.23.27-.35.27-.12.24-.42.74-.89,1.51s-.77,1.26-.88,1.5-.27.42-.8.89-.8.77-.8.89a3.81,3.81,0,0,0-1.51.88c-.77.59-1.33,1-1.68,1.24a2.33,2.33,0,0,0-1.07.45,2.37,2.37,0,0,1-1.06.44H71.82c-.24,0-.86-.44-1.86-1.33s-1.63-1.45-1.86-1.68-.77-.42-1.6-.89-1.36-.77-1.6-.89a3.05,3.05,0,0,0-.17-.88,4.86,4.86,0,0,0-.36-.62,5.07,5.07,0,0,1-.35-.62v-.89l.35-1.42a4.11,4.11,0,0,1,.53-1.24c.12-.12.18-.47.18-1.07a.72.72,0,0,0-.18-.53l-.17-.18A1.06,1.06,0,0,0,64,103c0,.12-.21.35-.62.71s-.83.74-1.24,1.15-.83.8-1.25,1.15-.68.6-.79.71-.77.74-1.6,1.51-1.48,1.33-2,1.69a2.32,2.32,0,0,0-1.07.44,2.37,2.37,0,0,1-1.06.44,3.61,3.61,0,0,1-1.24.45,7.88,7.88,0,0,1-1.42.26,16.23,16.23,0,0,1-2.66.71,17.27,17.27,0,0,1-2.13.36H31.39q0,1.59-.27,5.49c-.18,2.6-.35,5.41-.53,8.43s-.35,5.85-.53,8.51-.27,4.52-.27,5.59a11.15,11.15,0,0,0-.35,2c-.12,1-.21,2-.27,3.11s-.15,2.1-.26,3.1-.18,1.69-.18,2l-.89-.71Z"/><path d="M102.67,112.43c-.11,0-.82.09-2.12.26a23.85,23.85,0,0,1-2.66.27,9.14,9.14,0,0,0-.89-1.24,3.77,3.77,0,0,1-.71-1.06l1.6-11.18a11,11,0,0,0-2-.88c-1-.36-1.63-.59-1.86-.71A5.49,5.49,0,0,1,92.3,96.2a6.9,6.9,0,0,1-1-1.5V92.57c.11-.47.26-1,.44-1.6A5.59,5.59,0,0,0,92,89.91a5.07,5.07,0,0,1,.18-1.24,4.4,4.4,0,0,1,.71-1.78c.12-.11.53-.68,1.24-1.68a7.06,7.06,0,0,1,1.42-1.69c.24-.35.53-.76.89-1.24l.62-1a4.07,4.07,0,0,1,.62-.8V78.2a5.83,5.83,0,0,1,.35-1.59l.36-1.07a12.12,12.12,0,0,0-.44-2c-.3-1.06-.57-2-.8-2.66.23-.35.14-1.42-.27-3.19s-.68-3.07-.8-3.9c0-.24,0-.71.09-1.42s0-1.12-.09-1.24a11.88,11.88,0,0,1-.71-2c-.23-.89-.47-1.71-.71-2.48a20.62,20.62,0,0,1-.53-2.13A9.61,9.61,0,0,1,94,53.38c-.24-.59-.66-1.57-1.25-2.93S91.56,47.64,91,46.11s-1.15-3-1.68-4.26a17.16,17.16,0,0,1-1-2.84,4.75,4.75,0,0,0-1-1.95c-.65-.94-1.09-1.42-1.32-1.42a11.23,11.23,0,0,0-1.42-1.06c-.71-.47-1.48-1-2.31-1.51s-1.59-1-2.3-1.5a4.66,4.66,0,0,0-1.25-.71c-.11,0-.47-.48-1.06-1.42a22.79,22.79,0,0,0-1.6-2.31,2.11,2.11,0,0,0-.35-1,2.14,2.14,0,0,1-.35-1v-.89a2.33,2.33,0,0,1,.08-.62,1.89,1.89,0,0,0,.09-.62,3.82,3.82,0,0,1,.27-.88,3.48,3.48,0,0,0,.26-.89,2,2,0,0,0,.36-.53,1.1,1.1,0,0,1,.35-.45c.12-.05.18-.2.18-.44s.44-.53,1-1.24a3.45,3.45,0,0,0,.79-1.42,20.22,20.22,0,0,1,1.87-1.42,19.16,19.16,0,0,0,1.86-1.42,4.18,4.18,0,0,1,1.59-.71,8.35,8.35,0,0,1,1.6-.35L86.71,13c.24-.12.51-.24.8-.36a2.16,2.16,0,0,1,.8-.18h.89c.35.24,1.06.65,2.13,1.24S93,14.72,93.1,15.07a8.75,8.75,0,0,1,1.33,1.07l2.13,1.95c.76.71,1.47,1.39,2.12,2L100,21.46c.48.24,1.16.53,2,.88a6,6,0,0,0,2,.54c1.42.23,4,.56,7.89,1s7.92.89,12.24,1.42l12.15,1.51c3.78.47,6.38.77,7.8.88a10.6,10.6,0,0,0,3.64,1.07,27.33,27.33,0,0,0,4.16.53,5.05,5.05,0,0,0,2.66,1.24,14.3,14.3,0,0,1,2.13.53c.24.12.74.36,1.51.71s1.56.74,2.39,1.16,1.66.79,2.49,1.15,1.41.59,1.77.71a2.42,2.42,0,0,1,1.06.44,2.28,2.28,0,0,0,1.07.44l1.41,1.78c.48.59.83.88,1.07.88a12.46,12.46,0,0,0,1,1.42,3.45,3.45,0,0,1,.8,1.42c0,.24,0,.77-.09,1.6s-.08,1.48-.08,1.95a2.71,2.71,0,0,0-.54,2v1.24a2.81,2.81,0,0,1-.44.89c-.3.47-.62,1-1,1.59s-.74,1.19-1.15,1.78a10.82,10.82,0,0,1-1,1.24A15.82,15.82,0,0,0,166,54.62c-.47.59-.83,1-1.06,1.24l-2.66,2.66-2.13,2.13q-1.06.89-3.9,3.1t-6,4.79q-3.19,2.56-6,4.88c-1.89,1.53-3.19,2.6-3.9,3.19a.77.77,0,0,1,.62.44,4.07,4.07,0,0,0,.62.8,11,11,0,0,1,1.24.8,16.93,16.93,0,0,1,1.77,1.42c.6.53,1.16,1,1.69,1.41a2.33,2.33,0,0,0,1.15.62,15.54,15.54,0,0,0,1.95,1.51c.95.65,1.89,1.33,2.84,2S154,87,154.9,87.6A13.69,13.69,0,0,1,156.76,89a4.1,4.1,0,0,0,1.07,1.06,4.62,4.62,0,0,1,1.24,1.42,11.3,11.3,0,0,1,1.86,1.33c.77.65,1.53,1.31,2.3,2s1.45,1.28,2,1.87a6.58,6.58,0,0,1,1.07,1.24A2,2,0,0,0,167,99c.41.48.85,1,1.33,1.51l1.33,1.51a2.64,2.64,0,0,1,.62.88A9.19,9.19,0,0,1,171.3,105a2.85,2.85,0,0,0-.17.89v3.19a5.27,5.27,0,0,0-1.25,1.51,13.79,13.79,0,0,1-1.24,1.68,10.9,10.9,0,0,1-2.13,1.86,12.21,12.21,0,0,1-2.3,1.51,5.94,5.94,0,0,1-1.77.89c-.95.35-1.54.59-1.78.71h-1.59a4,4,0,0,1-.8-.09,4.08,4.08,0,0,0-.8-.09,21.21,21.21,0,0,1-1.6-2c-.7-1-1.44-1.89-2.21-2.84s-1.51-1.89-2.22-2.84a23.15,23.15,0,0,0-1.59-2c-.24,0-.8-.38-1.69-1.15s-1.68-1.45-2.39-2c0-.23-.3-.59-.89-1.06s-.89-.83-.89-1.07a25.83,25.83,0,0,1-2.39-1.68c-1-.77-2-1.51-3-2.22s-1.89-1.33-2.66-1.86a14.42,14.42,0,0,1-1.33-1c-.23-.11-.77-.44-1.59-1l-2.75-1.77c-1-.65-1.95-1.21-2.84-1.69s-1.5-.82-1.86-1.06a2.1,2.1,0,0,0-.89-.53,2.18,2.18,0,0,1-.88-.54l-1.07-.53a2.12,2.12,0,0,0-1,.36,4.28,4.28,0,0,0-1,.71,4.53,4.53,0,0,0-2,1.06,4.47,4.47,0,0,1-2,1.06,5.09,5.09,0,0,0-1.06.89,5.34,5.34,0,0,1-1.07.89,6.88,6.88,0,0,0-.71,2c-.23,1-.47,2-.71,3.1s-.44,2.07-.62,3a15.21,15.21,0,0,1-.44,1.95,3.7,3.7,0,0,1-.27.89c-.17.48-.35,1-.53,1.51a11.36,11.36,0,0,1-.62,1.51,3,3,0,0,0-.35.88c-.12.24-.33.71-.62,1.42s-.6,1.45-.89,2.22-.59,1.51-.89,2.21-.5,1.19-.62,1.42l-.88.89a3,3,0,0,0-.89.89l.71-5.5a20.26,20.26,0,0,0-1.24,2.57,21.8,21.8,0,0,0-1.07,2.75,19.82,19.82,0,0,1-.26,2.22q-.27,1.68-.54,3.45c-.17,1.18-.35,2.34-.53,3.46a19.32,19.32,0,0,0-.26,2.22l-1.42-1.77Zm5.68-71.82c.12.71.41,2,.89,4s.94,4,1.41,6.29.95,4.35,1.42,6.3.83,3.28,1.07,4a10,10,0,0,1,.44,1.33,18.16,18.16,0,0,1,.44,2.22c.12.82.21,1.59.27,2.3s.09,1.13.09,1.24l.53,1.6.36,1.06h1.59c.47,0,1.3,0,2.48.09s2.46.15,3.82.27,2.63.21,3.81.26a19.47,19.47,0,0,1,2.66.27l1.77-.89c.36-.23.92-.65,1.69-1.24s1.59-1.18,2.48-1.77l2.57-1.69c.83-.53,1.42-.91,1.77-1.15.59-.47,1.57-1.3,2.93-2.48s2.81-2.4,4.35-3.64l4.25-3.45c1.3-1.07,2.25-1.84,2.84-2.31.23,0,.5-.29.8-.89a5.12,5.12,0,0,1,.79-1.24c-.23,0-.56-.26-1-.8a2.33,2.33,0,0,1-.62-1.15A4.31,4.31,0,0,1,152.33,48a4.41,4.41,0,0,0-2-1.15,3.46,3.46,0,0,0-1.16-.45,18.83,18.83,0,0,1-2.12-.71c-.77-.29-1.6-.59-2.49-.88a7.46,7.46,0,0,1-2-1c-.59-.12-1.39-.32-2.39-.62a10.64,10.64,0,0,0-1.86-.44c-.59-.12-1.13-.24-1.6-.36a16.28,16.28,0,0,0-2.3-.35h-3.73c-.47.12-.79.53-1,1.24a3.33,3.33,0,0,1-.62,1.42,6.41,6.41,0,0,1-.45,1.59,6.84,6.84,0,0,0-.44,1.6h-.71a27.36,27.36,0,0,0-.44-3.28,24.93,24.93,0,0,1-.45-3.46v-.35a.55.55,0,0,0-.17-.36H125c-.12.36-.42,1.27-.89,2.75a13.85,13.85,0,0,0-.71,2.75,4.1,4.1,0,0,1-.53,1.77,4.44,4.44,0,0,0-.53,1.42h-.71l-.53-.53c0-.12-.06-.62-.18-1.51a16.24,16.24,0,0,1-.18-1.86,6.71,6.71,0,0,1-.26-2.84,6.77,6.77,0,0,0-.27-2.83l-11.17-.71Z"/><path d="M221.31,110.3l-1.78,1.24a18.25,18.25,0,0,1-.44,2.84,16.91,16.91,0,0,0-.44,2.84,2.8,2.8,0,0,1-.45.88,2.46,2.46,0,0,1-.79.89h-.89c0-.24,0-.68-.09-1.33s-.15-1.33-.26-2-.21-1.36-.27-2-.09-1-.09-1.24c-.35-.59-.71-.89-1.06-.89a1.86,1.86,0,0,0-1.07-.18h-1.86a15.83,15.83,0,0,0-1.77.09c-.53.06-.86.09-1,.09a8.29,8.29,0,0,0-2.84-.62,14.17,14.17,0,0,1-3.19-.62,5,5,0,0,1-1.42-.44,6.2,6.2,0,0,0-1.24-.45,4.69,4.69,0,0,1-1.5-.53c-.78-.35-1.57-.77-2.4-1.24l-2.39-1.33-1.51-.8h-1.06a10.76,10.76,0,0,1-2.22,1.24,7.39,7.39,0,0,1-2.57.89H186c-.24-.23-.65-.59-1.24-1.06s-.89-.83-.89-1.07v-2.66a7,7,0,0,1,.18-1,13.61,13.61,0,0,1,.44-1.6c.18-.53.38-1.27.62-2.22V80.69A8.86,8.86,0,0,1,183,79.62c-.23,0-.65,0-1.24-.09s-1.27-.14-2-.26-1.48-.21-2.12-.27l-1.16-.09c-.24,0-.59-.29-1.06-.88a16.08,16.08,0,0,0-1.07-1.24v-2a20.11,20.11,0,0,0,1.07-2,8.18,8.18,0,0,1,1.06-1.77,7.31,7.31,0,0,1,1.16-1.33l2-2q1.06-1.06,2-1.95c.65-.59,1.1-1,1.33-1.24V63.13q-1.06-5.49-2.12-10.64c-.6-3-1.25-6-1.95-9s-1.31-5.62-1.78-7.63a9,9,0,0,0-.35-2,8.39,8.39,0,0,1-.36-2,5.08,5.08,0,0,0-.44-1.42,4.71,4.71,0,0,1-.44-1.41c-.12-.24-.33-.65-.62-1.25s-.63-1.18-1-1.77-.68-1.15-1-1.68-.5-.92-.62-1.16a7.21,7.21,0,0,0-.35-1.5,6.74,6.74,0,0,1-.36-1.51v-5.5a6.79,6.79,0,0,1,.8-1.86,11.46,11.46,0,0,0,1-2.22,11.67,11.67,0,0,0,1.77-1.68,7.28,7.28,0,0,1,2-1.69,12.16,12.16,0,0,1,1.78-1.42,3.59,3.59,0,0,1,1.41-.7h4.79l.36.35c0,.12.11.18.35.18s.18.06.18.17a2.63,2.63,0,0,0,.35,1.07,2.7,2.7,0,0,1,.36,1.06c.11.24.32.74.62,1.51s.62,1.6,1,2.48.68,1.69,1,2.4.5,1.06.62,1.06c0,.24.47.86,1.42,1.86s1.65,1.75,2.13,2.22c.35.24.91.59,1.68,1.06s1.6,1,2.48,1.69,1.78,1.24,2.66,1.77a12,12,0,0,0,1.87,1,6,6,0,0,0,1.41.88l2.31,1.16c.83.41,1.62.79,2.39,1.15a12.65,12.65,0,0,1,1.69.89l3.72,1.41,3.73,1.42a13.19,13.19,0,0,0,3.19,1c1.77.41,3,.74,3.72,1,.36.12,1,.27,1.78.45s1.62.38,2.39.62,1.48.44,2.13.62a3.45,3.45,0,0,1,1.15.44,16.3,16.3,0,0,1,2.93.44c1.35.3,2.8.6,4.34.89s3,.56,4.35.8,2.27.41,2.74.53a1.2,1.2,0,0,1,.89.36l.36.35v4.08a2.3,2.3,0,0,1-.45,1.06,5.67,5.67,0,0,1-.8,1.07c-.23.24-.62.65-1.15,1.24s-1.09,1.18-1.68,1.77-1.16,1.13-1.69,1.6a6.05,6.05,0,0,1-1.15.88c0,.12-.24.3-.71.54l-1.6.79-1.77.89a3.33,3.33,0,0,1-1.42.44c-.24.12-.86.39-1.86.8s-2,.86-3.1,1.33-2.07.89-3,1.24a7.64,7.64,0,0,0-1.59.71c-.6.24-1.63.71-3.11,1.42a30.34,30.34,0,0,0-2.75,1.42h3.91c.23,0,.71,0,1.41-.09s1.48-.15,2.31-.26,1.6-.21,2.31-.27,1.18-.09,1.41-.09c.59-.12,1.6-.23,3-.35l4.43-.36c1.54-.11,3-.23,4.26-.35a20.74,20.74,0,0,0,2.66-.36h6.91a6.47,6.47,0,0,0,1.6.36c.83.12,1.71.24,2.66.35l2.75.36a11.45,11.45,0,0,1,1.86.35l1.06.36a5.88,5.88,0,0,0,1.6.35,8.81,8.81,0,0,0,2.13,1.06A9.1,9.1,0,0,0,267.06,63c.71.77,1.18,1.27,1.42,1.51a6.12,6.12,0,0,0,.35.89.36.36,0,0,0,.09.26A.37.37,0,0,1,269,66a.48.48,0,0,0,.18.35,4.74,4.74,0,0,1,.71,1.86,4.44,4.44,0,0,0,.71,1.87v2.66a10.22,10.22,0,0,0-.71,2.21,4.74,4.74,0,0,1-.71,1.87c-.12.35-.53,1.3-1.24,2.83s-1.19,2.6-1.42,3.19a10.15,10.15,0,0,0-1.07,1.42,3.85,3.85,0,0,1-1.06,1.24,15.7,15.7,0,0,1-1.69,1.87c-.88.88-1.86,1.83-2.92,2.83s-2.07,2-3,2.93l-1.95,2a7.83,7.83,0,0,1-1.68,1.51,8.1,8.1,0,0,0-1.69,1.5,16.47,16.47,0,0,0-2.74,1.25c-1.36.71-2.22,1.18-2.58,1.42a5.8,5.8,0,0,1-1.41.88c-.71.36-1.45.71-2.22,1.07s-1.54.74-2.31,1.15l-1.5.8a8.72,8.72,0,0,1-2.31,1.06,14.76,14.76,0,0,0-2.48,1.06q-.54.18-1.77.54c-.83.23-1.69.5-2.58.79s-1.71.6-2.48.89a5.27,5.27,0,0,1-1.68.44,22.56,22.56,0,0,0-.71,3.91,37.14,37.14,0,0,0-.36,3.9c0,.59-.09,2.09-.26,4.52s-.39,5.05-.62,7.89-.48,5.47-.71,7.89-.42,4-.54,4.7a13.59,13.59,0,0,1-.17,1.69c-.12.76-.21,1.56-.27,2.39s-.15,1.6-.26,2.3-.18,1.13-.18,1.25a5.67,5.67,0,0,1-.36,1.41,6.77,6.77,0,0,0-.35,1.25q0-.54-.09-2.22c-.06-1.13-.09-2.28-.09-3.46s0-2.33-.09-3.46-.09-1.86-.09-2.21c0-.71,0-1.69.09-2.93s.09-2.48.09-3.72,0-2.34.09-3.28.09-1.54.09-1.78,0-1.06.09-2.48.14-2.93.26-4.52.21-3.14.27-4.61.09-2.4.09-2.75V110.3ZM198.25,55.68l.63.62a2.2,2.2,0,0,0,.62.45h.88c.36-.12.89-.27,1.6-.45s1.06-.38,1.06-.62a17.36,17.36,0,0,0,2.49-1c1.18-.53,2.39-1.13,3.63-1.78s2.39-1.21,3.46-1.68a18.43,18.43,0,0,0,2.13-1.06c.11,0,.26-.18.44-.54a3.28,3.28,0,0,1,.62-.88l-17.56-5.5H196.3v2.84a16.6,16.6,0,0,1,.45,2l.53,2.92c.18,1,.35,2,.53,2.84S198.14,55.33,198.25,55.68Zm25.19,19.15a6.89,6.89,0,0,1-.45,2,14.71,14.71,0,0,1-.8,2,2.81,2.81,0,0,1-.44.89,2.58,2.58,0,0,0-.44.89c-.12.35-.42.41-.89.17l-.71-.35V74.83h-1.06a8.28,8.28,0,0,1-2.84.63c-1.54.17-2.6.32-3.19.44s-1.22.26-2.22.44-2,.39-3,.62-1.95.45-2.84.62A4.48,4.48,0,0,0,203,78a2.75,2.75,0,0,0-1,.26c-.42.18-.62.39-.62.62v9.58a10.5,10.5,0,0,0,1.24,1.06,17,17,0,0,0,2.48,1.6l1.6,1.06c.71.48,1.06.83,1.06,1.07.36.12,1.06.41,2.13.88a11.16,11.16,0,0,1,1.77.89,2.16,2.16,0,0,1,.8.18c.29.12.62.24,1,.35s.88.24,1.24.36h10.64c.71-.12,1.35-.24,2-.36s1.15-.23,1.68-.35a6,6,0,0,1,1.15-.18,15.93,15.93,0,0,1,2-.44A4,4,0,0,0,233.9,94l3.37-1a17,17,0,0,1,2.48-.62,14.88,14.88,0,0,0,1.95-1l2.84-1.6c.94-.53,1.89-1,2.84-1.42s1.59-.68,2-.8c0-.23.5-.71,1.5-1.42a17.65,17.65,0,0,0,2.22-1.77c.12,0,.27-.12.44-.35a.78.78,0,0,1,.62-.36,2.7,2.7,0,0,1,.36-1.06,2.79,2.79,0,0,0,.35-1.07V78a4.2,4.2,0,0,0-1-1.6,5.81,5.81,0,0,0-1.69-1.6,5.49,5.49,0,0,1-1.41-.35,5.62,5.62,0,0,0-1.42-.35H228.22c0,.59,0,1.59-.08,3s-.15,2.93-.27,4.52-.27,3.14-.44,4.61A29.15,29.15,0,0,1,227,89.2a9.19,9.19,0,0,1-.44,2.22,9.39,9.39,0,0,0-.44,1.86c0-.24,0-.68-.09-1.33s-.15-1.33-.27-2-.21-1.39-.26-2a14.2,14.2,0,0,1-.09-1.51,12.2,12.2,0,0,1-.36-2.13c-.12-1.06-.24-2.21-.35-3.46s-.21-2.42-.27-3.54-.09-1.92-.09-2.4Zm-6-14.36c-.48,0-.71.33-.71,1s.23,1,.71,1,.88-.32.88-1S218,60.47,217.41,60.47Z"/><path d="M295.08,87.25a9.75,9.75,0,0,1-.36,2,9.39,9.39,0,0,0-.35,2,.74.74,0,0,0-.62.44q-.27.45-.45.45c0,.47-.06,1.33-.17,2.57s-.21,2.57-.27,4-.15,2.81-.27,4.16-.17,2.28-.17,2.75a10,10,0,0,0-.62,2.84,10.23,10.23,0,0,1-.63,2.84,6.76,6.76,0,0,1-.53,2,6.94,6.94,0,0,0-.53,2V88.84a4.72,4.72,0,0,1-1.51-.35l-2-.71a12.6,12.6,0,0,0-1.86-.53c-.59-.12-1-.12-1.06,0a10.05,10.05,0,0,1-.89,1.42,22.38,22.38,0,0,0-1.24,2.48,22.69,22.69,0,0,0-1,2.57,7.58,7.58,0,0,1-1,2.22c0,.12,0,.41-.09.88s-.15,1-.27,1.51-.2,1-.26,1.51-.09.77-.09.89a2,2,0,0,1-.44,1,1.92,1.92,0,0,0-.45,1,13.25,13.25,0,0,0-1.42,1.15,24.61,24.61,0,0,0-1.77,1.77c-.59.65-1.18,1.24-1.77,1.78s-.95.79-1.07.79l-3.54,2.13h-1.25a2,2,0,0,1-1-.44,7.85,7.85,0,0,1-1-.8,2.3,2.3,0,0,1-.35-.53,2.68,2.68,0,0,1-.36-1.07v-1.95a12.46,12.46,0,0,1,.36-2.13,17.14,17.14,0,0,0,.35-1.77c.24-.47.59-1.33,1.07-2.57s.94-2.54,1.42-3.9.91-2.63,1.33-3.81a12.26,12.26,0,0,1,1-2.31V87.25a20.18,20.18,0,0,1-2.3-.27,9.23,9.23,0,0,1-2.49-.62,2.64,2.64,0,0,0-.35-1.06,2.68,2.68,0,0,1-.36-1.07V83.17a14.59,14.59,0,0,1,.36-1.6c.12-.47.24-.88.35-1.24L272,73.59a5.88,5.88,0,0,0,.89-.17c.47-.12,1-.27,1.51-.45s1-.35,1.5-.53a2.91,2.91,0,0,0,.89-.44,8.15,8.15,0,0,1,.89-2.13c.59-1.18,1-2.07,1.24-2.66a29.79,29.79,0,0,1,1-3.55c.54-1.65,1.13-3.43,1.78-5.32s1.21-3.63,1.68-5.23.83-2.75,1.07-3.46a3.36,3.36,0,0,0,.44-1.06c.18-.59.35-1.24.53-2s.36-1.39.53-2a8.41,8.41,0,0,1,.45-1.33c.11-.47.29-1.15.53-2s.47-1.74.71-2.57l.62-2.22a6.92,6.92,0,0,0,.26-1.15c0-.12,0-1.21.09-3.28s.12-4.32.18-6.74.09-4.67.09-6.74V15.07a5.23,5.23,0,0,0,.8-1.86,14.8,14.8,0,0,1,.62-1.86,9.81,9.81,0,0,1,.88-1.77c.6-1.07,1-1.78,1.25-2.13A3.45,3.45,0,0,1,293.21,6a4.85,4.85,0,0,1,1.16-1.24,1.22,1.22,0,0,1,.26-.71,4.65,4.65,0,0,0,.45-.71A24.1,24.1,0,0,1,297.29,2,10.87,10.87,0,0,0,299.15.71a5.69,5.69,0,0,1,1.07-.36A6,6,0,0,1,302,0h1.95l.71.71V9.58c-.12,1.3-.24,2.33-.35,3.1s-.21,1.51-.27,2.22-.09,1.12-.09,1.24v3.72c0,.24,0,1.21.09,2.93s.12,3.61.18,5.67.15,4,.26,5.77.18,2.77.18,3a15.43,15.43,0,0,0,.45,2.48,18.72,18.72,0,0,1,.44,2.31c.23.59.59,1.71,1.06,3.37s.83,2.83,1.07,3.54a23.72,23.72,0,0,0,.88,2.93l1.51,4.34c.53,1.54,1,3,1.51,4.35s.77,2.28.88,2.75.42,1.12.89,2.3a24.46,24.46,0,0,1,.89,2.49,12.27,12.27,0,0,0,1.24,2.21,5,5,0,0,1,.89,1.69,5.87,5.87,0,0,1,1.77.79,5.54,5.54,0,0,0,1.77.8,3.73,3.73,0,0,0,.8.62c.29.18.44.33.44.45a14.6,14.6,0,0,0-.35,3.9,14.6,14.6,0,0,0,.35,3.9c.71,1.54,1.3,2.84,1.78,3.9s1,2.13,1.59,3.19,1.07,1.9,1.42,2.49c.12.23.5,1.33,1.15,3.28l2.13,6.38c.77,2.31,1.48,4.46,2.13,6.47a21.36,21.36,0,0,0,1.15,3.19,5.93,5.93,0,0,0,1.07,2.13,9.13,9.13,0,0,0,.88,1.42v3.9a7.13,7.13,0,0,0-1,1.86c-.42,1-.74,1.75-1,2.22l-.79.8c-.42.41-.89.89-1.42,1.42l-1.51,1.51-1.06,1.06a2.79,2.79,0,0,0-1.07.35,2.7,2.7,0,0,1-1.06.36h-4.79a9.73,9.73,0,0,1-1.77-1.15c-1.07-.77-1.78-1.28-2.13-1.51a4.79,4.79,0,0,0-.45-1.42,5,5,0,0,1-.44-1.42V119.7l-.71-1.42a4,4,0,0,1-.53-1.15,2.29,2.29,0,0,0-.53-1,38.39,38.39,0,0,1-3-6.74q-1.77-4.78-3.72-9.75-2.13-5.85-4.61-12.41ZM292.42,64l-1.25,3.1a11.33,11.33,0,0,0-.88,2.75,9.11,9.11,0,0,1-.09,1.06,9.41,9.41,0,0,0-.09,1.07h1.06a6.93,6.93,0,0,1,2.49-.62,5.32,5.32,0,0,0,2.3-.62v-.89a12,12,0,0,0-.8-2.75,11,11,0,0,1-.79-3.1c-.24,0-.45-.27-.62-.8s-.33-.8-.45-.8Z"/><path d="M367.78,106.58c.12-.24,0-.45-.44-.62a3.83,3.83,0,0,1-1.16-.8l-2.12,18.26-1.25.71a2.27,2.27,0,0,1-.35-1.5c0-.77-.12-1.22-.35-1.33,0-.36,0-1.25.08-2.66s.12-2.93.18-4.53.15-3.1.27-4.52.17-2.3.17-2.66,0-1,.09-2l.18-2.84c.06-.94.09-1.83.09-2.66V97.89a2.2,2.2,0,0,1-.36-.53,2.85,2.85,0,0,1-.35-1.07c-.24-.35-.68-1.06-1.33-2.13S360,92.39,359.8,92s-.56-.92-1-1.69S358,88.79,357.49,88s-.91-1.57-1.32-2.22a13.89,13.89,0,0,1-.8-1.33,13.14,13.14,0,0,1-1.87-1.86c-.88-1-1.77-2.07-2.66-3.19s-1.71-2.22-2.48-3.28-1.33-1.84-1.68-2.31a3.91,3.91,0,0,0-.27,1.24c-.06.59-.09.95-.09,1.07a5.3,5.3,0,0,0-.17,1.59,2.1,2.1,0,0,1-.18.89q0,.89.09,4.17c.06,2.18.11,4.52.17,7s.12,4.82.18,7,.09,3.58.09,4.17a1.41,1.41,0,0,0-.18.89,1.68,1.68,0,0,1-.17.71v1.59a5.88,5.88,0,0,0-1.33,1.51,6.54,6.54,0,0,1-1.33,1.51c-.24.24-.63.59-1.16,1.06s-1.15,1-1.86,1.51-1.39,1.06-2,1.6-1.09.91-1.33,1.15l-1.77.71a9.41,9.41,0,0,1-1.07-.09,9.11,9.11,0,0,0-1.06-.09,1.93,1.93,0,0,1-.62-.09,2,2,0,0,0-.62-.09.73.73,0,0,1-.53-.17l-.71-.89v-3a14.42,14.42,0,0,0-.18-2.22,13.13,13.13,0,0,0-.35-1.69v-3.72c0-.83,0-1.62.08-2.39s.09-1.27.09-1.51V93.54c0-.76,0-1.47-.09-2.12a4.68,4.68,0,0,0-.26-1.34c0-.59,0-1.47-.09-2.66s-.09-2.39-.09-3.63V78.56a30.1,30.1,0,0,0-.27-3.28c-.17-1.48-.32-3-.44-4.52s-.26-3-.44-4.26-.27-2.13-.27-2.48-.06-1.3-.18-2.49-.26-2.39-.44-3.63-.33-2.42-.44-3.55a12.65,12.65,0,0,0-.36-2.21,12.89,12.89,0,0,0-.26-1.69c-.18-.89-.36-1.8-.53-2.75l-.54-2.83a13.59,13.59,0,0,1-.26-2c.47,0,.77-.17.88-.53a1.65,1.65,0,0,0,.27-.88c.06-.48.12-1,.18-1.51a13.4,13.4,0,0,0,.09-1.51v-.89c.23,0,.62-.35,1.15-1.06a4.7,4.7,0,0,1,1.15-1.24,22.58,22.58,0,0,0,2.31-1.95,7.7,7.7,0,0,0,1.42-.62,6.92,6.92,0,0,0,1.59-1,.77.77,0,0,1,.53-.17,1.56,1.56,0,0,0,.71-.18,2,2,0,0,0,.89-.18.71.71,0,0,0,.53.18,1.2,1.2,0,0,1,.53.09,1.25,1.25,0,0,0,.54.09h1.06a3,3,0,0,1,.89.88c.35.48.64.89.88,1.24a3,3,0,0,0,.36.89c.23.47.5,1,.8,1.51a9.18,9.18,0,0,1,.7,1.59,5,5,0,0,1,.27,1,11.06,11.06,0,0,0,1.42,2.3,5.14,5.14,0,0,1,1.06,1.78,15.21,15.21,0,0,0,1.24,1.68c.71.89,1.51,1.84,2.4,2.84s1.71,2,2.48,3,1.33,1.81,1.69,2.4q1.06,1.06,3.54,4.08c1.66,2,3.4,4.16,5.23,6.47l5.24,6.56q2.47,3.1,3.54,4.35v-.54l.18-.35a16,16,0,0,0-.18-1.86c-.12-.89-.24-1.8-.35-2.75s-.24-1.83-.36-2.66a14,14,0,0,1-.17-1.6c0-.82-.12-2.72-.36-5.67s-.47-6.18-.71-9.67-.47-6.71-.71-9.66-.41-4.85-.53-5.68a6.44,6.44,0,0,0-.18-1.59,3.91,3.91,0,0,1-.17-1.24L366,30.5a3.78,3.78,0,0,1-1.24-.53,1.14,1.14,0,0,1-.89-1.6V26.25a.73.73,0,0,1,.18-.54c.11-.23.35-.68.71-1.33a6.1,6.1,0,0,1,.88-1.33,1.46,1.46,0,0,1,.53-.88,1.46,1.46,0,0,0,.54-.89c.23-.35.62-.89,1.15-1.6s.86-1,1-.88A7.14,7.14,0,0,1,371,16.85c1.07-.71,1.89-1.24,2.48-1.6a13.59,13.59,0,0,1,1.25-.71,8.94,8.94,0,0,1,1.59-.71l1.07-.53a1.27,1.27,0,0,1,1.06-.18h.35a.8.8,0,0,1,.36.09,1.2,1.2,0,0,0,.53.09h1.6a2.91,2.91,0,0,1,.88,1.06c.36.6.59,1,.71,1.25a5.14,5.14,0,0,0,.18,1.24,14.71,14.71,0,0,1,.36,1.59c0,.24.08,1,.26,2.22a8.82,8.82,0,0,1,.09,2.75q0,.7.27,3.81t.44,6.83c.12,2.48.24,4.79.35,6.91s.18,3.43.18,3.91.24,1.39.36,2.39.2,2,.26,3.1.12,2,.18,2.75.09,1.21.09,1.33c.23,1.77.56,4.43,1,8s.92,7.57,1.51,12.06,1.21,9.19,1.86,14.1l1.86,14q.9,6.64,1.6,12c.47,3.54.83,6.14,1.06,7.8l-.17.89a3.9,3.9,0,0,1-.18,1.24,4.36,4.36,0,0,1-1,1.59,13.71,13.71,0,0,0-1.15,1.6c-.12.12-.44.38-1,.8s-1.1.85-1.69,1.33l-1.68,1.33c-.53.41-.86.68-1,.8a5.27,5.27,0,0,1-1.86.79,14.27,14.27,0,0,0-2.22.8,2,2,0,0,1-.62-.09,1.37,1.37,0,0,0-.44-.09l-.89-.17a11.19,11.19,0,0,1-1.15-1.6,12.07,12.07,0,0,0-1.15-1.6,16.54,16.54,0,0,1-1.51-2.92q-1-2.22-2-4.7c-.71-1.66-1.39-3.22-2-4.7a29.5,29.5,0,0,0-1.51-3.1l-1.59-.18-2.66,21.1L366,138v-2c0-1,0-2,.09-3.11s.08-2.1.08-3.1a8,8,0,0,0-.17-2c.11-.83.29-2.16.53-4s.47-3.75.71-5.76.47-3.94.71-5.77.41-3.1.53-3.81Z"/></g></g></g></svg>