<svg xmlns="http://www.w3.org/2000/svg" viewBox="0 0 276 276"><title>Vinyle</title><g id="Calque_2" data-name="Calque 2"><g id="WHITE_BG" data-name="WHITE BG"><g id="VINYLES"><path d="M138,0C61.91,0,0,61.91,0,138S61.91,276,138,276s138-61.91,138-138S214.09,0,138,0ZM235,133.69a4.31,4.31,0,0,1,4.31,4.31A101.37,101.37,0,0,1,138,239.26a4.31,4.31,0,0,1,0-8.62A92.75,92.75,0,0,0,230.64,138,4.31,4.31,0,0,1,235,133.69Zm-17.11,0a4.31,4.31,0,0,1,4.31,4.31A84.25,84.25,0,0,1,138,222.15a4.31,4.31,0,0,1,0-8.62A75.61,75.61,0,0,0,213.53,138,4.31,4.31,0,0,1,217.84,133.69Zm-17.43,0a4.31,4.31,0,0,1,4.32,4.31A66.81,66.81,0,0,1,138,204.73a4.32,4.32,0,0,1,0-8.63A58.16,58.16,0,0,0,196.1,138,4.31,4.31,0,0,1,200.41,133.69ZM24,142.31A4.31,4.31,0,0,1,19.67,138,118.46,118.46,0,0,1,138,19.67a4.32,4.32,0,0,1,0,8.63A109.82,109.82,0,0,0,28.3,138,4.31,4.31,0,0,1,24,142.31Zm17.07,0A4.31,4.31,0,0,1,36.74,138,101.37,101.37,0,0,1,138,36.74a4.31,4.31,0,1,1,0,8.62A92.75,92.75,0,0,0,45.36,138,4.31,4.31,0,0,1,41.05,142.31Zm17.11,0A4.31,4.31,0,0,1,53.85,138,84.25,84.25,0,0,1,138,53.85a4.31,4.31,0,1,1,0,8.62A75.61,75.61,0,0,0,62.47,138,4.31,4.31,0,0,1,58.16,142.31Zm17.43,0A4.31,4.31,0,0,1,71.27,138,66.81,66.81,0,0,1,138,71.27a4.32,4.32,0,0,1,0,8.63A58.16,58.16,0,0,0,79.9,138,4.31,4.31,0,0,1,75.59,142.31ZM95,138a43,43,0,1,1,43,43A43,43,0,0,1,95,138Zm43,118.33a4.32,4.32,0,0,1,0-8.63A109.82,109.82,0,0,0,247.7,138a4.32,4.32,0,0,1,8.63,0A118.46,118.46,0,0,1,138,256.33Z"/></g></g></g></svg>